<svg xmlns="http://www.w3.org/2000/svg" width="1440" height="720" viewBox="0 0 1440 720"><defs><linearGradient id="ocean" x2="0" y2="1"><stop stop-color="#d6f2f4"/><stop offset=".5" stop-color="#66bfdd"/><stop offset="1" stop-color="#d6f2f4"/></linearGradient></defs><path fill="url(#ocean)" d="M0 0H1440V720H0Z"/><g fill="none" stroke="#effcff" stroke-opacity=".24" stroke-width="1"><path d="M120 0V720"/><path d="M240 0V720"/><path d="M360 0V720"/><path d="M480 0V720"/><path d="M600 0V720"/><path d="M720 0V720"/><path d="M840 0V720"/><path d="M960 0V720"/><path d="M1080 0V720"/><path d="M1200 0V720"/><path d="M1320 0V720"/><path d="M0 120H1440"/><path d="M0 240H1440"/><path d="M0 360H1440"/><path d="M0 480H1440"/><path d="M0 600H1440"/></g><g stroke="#f5f5db" stroke-width="1.8" stroke-linejoin="round" fill-rule="evenodd"><path d="M481.7,680.2 L480.5,682.2 L479.4,684.0 L471.0,683.5 L462.0,683.7 L457.0,682.4 L457.0,682.2 L454.8,681.0 L463.8,681.2 L472.5,681.6 L475.4,679.9 L477.6,678.5 L481.7,680.2Z" fill="#b9d99e"/><path d="M83.2,678.0 L75.5,678.5 L70.2,677.1 L67.9,675.7 L67.7,675.5 L65.1,674.4 L65.1,674.4 L67.6,672.9 L75.0,673.5 L79.0,674.8 L82.1,676.2 L83.2,678.0Z" fill="#b9d99e"/><path d="M539.4,672.2 L544.3,673.9 L546.0,676.3 L546.5,678.1 L546.7,680.1 L540.5,681.4 L534.0,682.4 L526.5,683.3 L518.1,684.1 L508.6,683.9 L503.3,682.5 L504.0,680.9 L512.6,679.8 L516.0,678.5 L518.5,676.7 L520.3,675.2 L522.8,673.8 L525.4,672.2 L525.4,672.2 L527.4,672.2 L533.3,671.3 L539.4,672.2Z" fill="#b9d99e"/><path d="M235.2,654.0 L240.3,654.6 L245.1,653.9 L242.8,655.3 L239.1,656.4 L233.5,656.0 L229.5,654.6 L229.5,654.6 L230.4,653.3 L235.2,654.0Z" fill="#b9d99e"/><path d="M217.8,653.9 L223.9,655.5 L221.5,655.3 L216.4,654.9 L210.9,653.8 L210.9,653.8 L213.8,653.0 L217.8,653.9Z" fill="#b9d99e"/><path d="M324.1,647.7 L328.5,648.3 L332.8,647.8 L335.2,650.1 L332.1,649.8 L327.2,649.9 L322.3,649.8 L316.9,650.0 L312.8,649.2 L310.7,647.6 L310.7,647.6 L313.2,646.9 L318.3,647.4 L324.1,647.7Z" fill="#b9d99e"/><path d="M446.2,643.8 L446.7,645.6 L446.0,647.2 L444.9,648.7 L440.2,649.2 L435.7,650.0 L430.4,649.9 L432.4,648.4 L427.7,648.9 L423.2,649.5 L420.2,648.3 L419.9,646.6 L424.3,645.1 L424.3,645.1 L427.1,644.6 L431.7,644.8 L432.9,642.7 L433.1,641.2 L433.0,638.0 L435.3,636.1 L439.0,635.5 L441.1,637.0 L442.0,638.5 L443.8,640.3 L445.1,642.0 L446.2,643.8Z" fill="#b9d99e"/><path d="M485.5,616.6 L483.8,617.5 L480.8,616.8 L477.6,617.2 L474.8,618.2 L471.9,619.2 L470.0,620.4 L469.4,621.9 L469.6,623.4 L471.5,624.8 L468.8,625.7 L465.0,626.0 L462.8,627.3 L460.5,628.6 L458.0,630.3 L457.3,631.8 L458.7,633.5 L460.9,634.7 L464.2,635.7 L467.2,636.9 L468.9,638.5 L469.7,640.0 L470.9,641.5 L472.8,642.9 L473.9,644.4 L474.5,648.0 L475.7,649.5 L476.0,651.1 L477.2,652.7 L476.7,654.8 L474.5,656.4 L472.1,657.8 L466.8,658.3 L465.0,659.7 L462.6,661.1 L456.6,662.5 L451.2,663.2 L446.2,664.0 L440.8,664.9 L437.6,666.5 L431.2,666.7 L424.1,666.5 L417.8,666.9 L411.0,666.9 L412.3,668.4 L418.4,669.1 L422.9,670.2 L425.4,671.6 L420.9,672.9 L414.0,672.5 L408.3,673.5 L408.1,675.2 L407.9,676.7 L412.6,678.1 L413.5,679.5 L418.6,681.0 L427.0,681.7 L434.2,682.8 L439.9,684.0 L447.2,685.3 L457.2,685.9 L467.0,687.0 L473.8,688.2 L481.2,689.5 L485.2,691.4 L487.1,692.9 L492.0,691.5 L498.5,690.3 L505.5,689.0 L513.8,688.0 L521.0,686.9 L530.9,686.8 L540.7,687.4 L548.8,688.3 L551.4,686.6 L556.9,685.4 L567.0,685.3 L574.9,684.5 L582.5,683.6 L590.8,683.1 L599.6,682.4 L605.8,681.4 L603.0,679.9 L601.3,678.5 L601.3,677.0 L593.5,677.2 L585.3,677.8 L577.4,677.8 L576.3,676.3 L576.9,673.4 L578.7,672.5 L584.4,671.6 L591.2,670.6 L596.0,669.4 L600.9,668.3 L604.5,666.7 L610.0,666.0 L615.4,665.4 L618.1,665.1 L624.3,665.0 L630.2,664.4 L635.1,663.6 L640.0,662.7 L644.3,661.8 L649.9,660.5 L653.4,659.2 L657.2,658.0 L658.4,656.4 L654.1,655.5 L655.5,653.8 L658.2,652.6 L662.4,651.8 L666.8,650.9 L670.8,649.6 L674.0,648.0 L675.9,646.2 L678.8,645.1 L683.6,645.3 L685.6,646.6 L690.3,646.8 L690.5,645.3 L692.5,643.7 L696.8,644.1 L697.9,645.6 L702.6,645.8 L707.8,645.1 L712.8,644.7 L717.4,644.9 L719.1,646.6 L723.5,645.2 L727.5,644.5 L732.1,644.0 L736.6,643.4 L740.6,642.5 L745.1,641.8 L748.5,641.0 L751.0,639.6 L753.9,640.6 L758.1,640.0 L761.0,641.9 L763.3,643.3 L767.8,642.6 L769.6,641.0 L773.7,639.9 L778.9,640.1 L780.5,641.6 L783.8,640.1 L788.1,639.7 L792.8,639.5 L797.0,639.6 L801.5,640.0 L805.8,640.3 L807.7,641.6 L810.3,642.8 L814.7,642.1 L819.4,641.9 L823.9,641.9 L828.4,641.8 L832.4,641.3 L836.6,640.8 L840.1,639.7 L843.9,639.0 L848.0,638.6 L851.0,637.5 L853.2,635.3 L855.5,634.0 L859.6,634.6 L861.2,636.0 L864.6,637.0 L868.8,636.7 L871.6,638.1 L874.6,639.1 L878.7,638.2 L880.1,636.4 L883.7,635.7 L887.8,634.4 L891.8,633.9 L896.5,633.1 L899.6,632.2 L902.9,631.3 L906.0,630.4 L909.8,630.9 L913.4,629.5 L916.0,628.4 L919.7,628.4 L923.0,627.5 L923.8,626.1 L927.2,625.0 L930.5,624.2 L934.5,623.6 L938.1,623.3 L941.7,623.5 L945.4,623.9 L948.6,625.0 L949.0,626.7 L952.5,628.1 L955.0,629.2 L959.8,629.6 L962.4,630.7 L965.7,631.8 L969.5,632.1 L972.8,631.3 L976.2,629.6 L980.0,630.5 L983.9,631.0 L987.6,631.4 L991.6,631.7 L995.6,631.7 L998.9,635.9 L998.7,636.9 L998.2,638.7 L994.4,639.7 L991.3,641.2 L991.8,642.8 L996.3,642.7 L995.7,644.3 L993.7,645.8 L991.8,647.4 L994.9,648.7 L999.5,649.1 L1004.1,648.4 L1006.3,646.8 L1007.6,645.3 L1009.8,644.0 L1012.3,642.9 L1013.3,641.5 L1015.5,639.5 L1018.0,639.1 L1022.5,638.9 L1026.5,638.5 L1030.6,637.9 L1032.5,636.3 L1033.7,634.8 L1036.5,633.3 L1040.4,632.3 L1043.7,631.5 L1045.9,630.2 L1048.2,629.5 L1051.1,628.8 L1055.1,629.2 L1058.7,628.8 L1062.6,628.4 L1067.0,628.6 L1069.9,627.5 L1071.9,624.8 L1073.4,625.9 L1075.3,627.8 L1078.7,628.6 L1082.5,628.9 L1086.4,628.4 L1090.4,628.8 L1094.2,628.8 L1096.7,628.4 L1100.1,628.7 L1103.1,629.5 L1106.7,629.0 L1111.0,629.0 L1114.7,628.4 L1118.9,629.0 L1121.5,627.7 L1123.6,626.3 L1126.3,625.2 L1131.3,622.3 L1133.9,622.8 L1137.0,623.9 L1139.6,625.3 L1144.7,627.7 L1148.6,627.8 L1152.3,627.8 L1156.6,627.3 L1160.9,626.8 L1164.2,625.7 L1167.0,624.5 L1171.4,624.4 L1174.4,623.5 L1177.6,624.3 L1179.6,625.5 L1182.4,626.8 L1186.8,626.6 L1189.5,627.7 L1194.3,628.7 L1199.3,629.1 L1203.5,628.8 L1206.6,627.5 L1209.3,626.3 L1212.9,625.9 L1216.5,626.5 L1220.6,626.9 L1224.4,626.3 L1228.0,626.3 L1231.5,626.6 L1235.2,627.0 L1238.8,626.3 L1243.1,625.7 L1247.2,625.5 L1251.7,625.5 L1255.4,625.2 L1259.0,624.8 L1260.1,622.9 L1260.3,621.2 L1262.8,622.3 L1263.5,624.1 L1264.8,625.8 L1266.5,627.1 L1269.8,627.8 L1274.4,627.6 L1279.6,627.5 L1283.2,627.3 L1288.5,627.3 L1292.2,627.2 L1297.5,627.3 L1302.0,627.7 L1304.8,628.9 L1304.0,630.4 L1306.6,631.6 L1310.9,632.5 L1315.4,633.5 L1320.5,634.2 L1325.9,634.9 L1330.0,635.5 L1334.6,635.6 L1337.1,634.2 L1340.7,635.3 L1343.7,636.6 L1347.2,637.5 L1352.1,637.9 L1356.7,638.4 L1358.7,640.0 L1363.2,640.9 L1366.3,642.3 L1370.7,642.9 L1375.4,642.9 L1379.7,643.1 L1384.5,643.0 L1389.2,643.3 L1393.7,643.9 L1397.9,644.8 L1402.0,645.6 L1404.8,646.8 L1404.4,648.4 L1402.2,649.8 L1400.4,651.6 L1399.0,653.0 L1397.1,654.6 L1391.9,655.3 L1389.5,656.7 L1384.4,657.5 L1382.6,659.1 L1379.8,660.6 L1376.9,661.8 L1375.3,663.5 L1374.3,665.0 L1373.9,666.8 L1374.0,668.3 L1376.2,669.8 L1377.1,671.3 L1379.0,672.7 L1386.4,673.3 L1388.0,675.0 L1380.8,675.6 L1374.7,676.5 L1367.1,676.6 L1363.7,678.9 L1363.0,680.8 L1361.3,682.3 L1359.2,683.8 L1364.5,685.1 L1366.5,686.8 L1370.0,688.2 L1374.8,689.6 L1380.4,690.8 L1386.4,692.1 L1395.6,693.3 L1397.6,695.3 L1409.1,696.2 L1409.9,696.5 L1412.9,697.7 L1423.9,696.6 L1433.1,697.9 L1440.0,698.9 L1440.0,720.0 L0.0,720.0 L0.0,698.9 L0.2,698.9 L3.8,696.6 L11.0,697.8 L11.4,697.7 L12.6,697.3 L13.9,696.9 L15.1,696.6 L15.7,696.4 L16.3,696.4 L16.7,696.5 L22.5,698.1 L27.5,696.5 L28.4,696.2 L40.2,695.5 L44.0,696.5 L45.9,696.9 L51.9,698.3 L63.3,699.3 L72.3,700.6 L87.7,701.5 L99.2,700.4 L116.2,701.2 L125.9,702.4 L136.4,701.3 L147.6,700.2 L148.4,698.3 L132.7,698.1 L119.8,697.2 L116.4,695.6 L105.7,694.8 L106.4,693.0 L107.8,691.3 L109.3,689.8 L108.6,688.2 L101.9,687.1 L98.8,685.7 L92.7,684.4 L102.4,684.6 L111.6,684.0 L117.4,685.3 L124.5,684.2 L131.1,682.7 L134.3,681.4 L132.9,679.7 L127.7,678.6 L121.9,677.4 L113.6,677.2 L106.4,676.6 L98.7,676.3 L96.1,674.8 L90.9,673.5 L87.8,672.1 L86.5,667.6 L88.5,667.9 L92.1,669.2 L98.7,668.8 L105.0,668.3 L108.3,670.0 L114.7,669.6 L120.0,668.7 L125.0,667.6 L129.6,666.3 L135.6,665.9 L135.4,664.4 L134.0,662.9 L135.2,661.5 L140.4,660.8 L142.7,662.1 L148.8,661.4 L153.4,660.3 L159.2,660.3 L164.6,659.9 L170.0,658.9 L174.3,658.1 L179.1,657.2 L182.3,657.4 L185.0,657.8 L191.0,657.2 L196.3,657.9 L201.8,657.8 L207.0,657.3 L212.4,657.7 L218.4,658.1 L224.0,657.9 L229.8,658.0 L235.7,658.1 L241.2,657.9 L245.3,656.7 L250.1,656.1 L255.1,657.0 L259.9,656.3 L264.2,654.9 L266.8,656.1 L268.2,657.5 L270.8,658.9 L275.0,657.7 L279.7,659.2 L285.1,659.6 L289.8,660.7 L295.4,660.5 L300.5,659.8 L306.5,660.0 L311.9,660.5 L317.4,661.2 L319.5,659.5 L316.9,658.2 L315.0,656.7 L309.8,656.4 L307.5,654.9 L306.7,653.4 L305.3,650.5 L308.3,651.0 L313.6,651.3 L318.7,651.0 L323.5,651.6 L327.5,652.8 L329.2,654.2 L334.7,654.5 L339.8,653.9 L345.3,653.1 L350.2,652.7 L354.3,653.6 L359.6,653.3 L363.1,650.2 L366.3,652.0 L370.9,652.7 L375.9,652.4 L379.2,653.9 L384.5,654.1 L389.3,654.5 L394.1,655.4 L397.3,653.9 L398.8,652.5 L402.8,654.1 L408.3,653.7 L412.4,654.5 L415.1,655.9 L420.4,655.5 L424.6,654.6 L428.7,653.6 L433.5,653.1 L439.2,652.6 L444.3,652.0 L448.2,651.2 L450.5,649.9 L451.5,648.2 L451.0,646.6 L449.7,645.0 L448.3,643.4 L447.1,641.8 L446.1,640.4 L445.8,638.9 L446.2,637.3 L448.1,635.8 L449.7,634.2 L450.3,632.6 L449.5,630.9 L449.0,629.3 L451.0,627.5 L453.2,626.3 L455.8,624.8 L458.5,623.6 L461.7,622.4 L463.3,620.7 L465.5,619.6 L468.0,618.6 L471.8,618.3 L474.3,617.1 L477.2,616.3 L480.5,615.8 L483.3,614.8 L485.6,613.6 L488.8,613.1 L491.1,614.1 L489.6,615.4 L485.5,616.6Z" fill="#b9d99e"/><path d="M449.0,575.4 L454.2,577.8 L459.8,578.8 L458.0,580.8 L454.2,581.0 L452.2,579.6 L450.8,581.2 L447.4,582.4 L443.1,582.0 L440.2,580.8 L436.0,580.2 L430.9,578.0 L426.9,575.8 L421.3,571.3 L424.6,572.2 L430.3,574.9 L435.6,576.3 L437.6,574.5 L438.9,571.7 L442.6,570.1 L445.5,570.5 L445.5,570.5 L447.0,572.4 L449.0,575.4Z" fill="#b9d99e"/><path d="M485.8,564.4 L489.0,566.2 L487.8,567.6 L482.4,568.8 L480.6,567.4 L477.2,569.2 L475.2,567.4 L480.0,565.0 L483.4,566.0 L485.8,564.4Z" fill="#b9d99e"/><path d="M1001.1,558.8 L995.0,559.1 L994.9,557.0 L995.5,555.3 L995.7,554.5 L998.3,555.8 L1002.1,556.3 L1002.2,557.0 L1001.1,558.8Z" fill="#b9d99e"/><path d="M1301.6,523.2 L1305.5,524.6 L1307.6,524.0 L1310.8,523.2 L1313.2,523.5 L1313.4,528.2 L1312.1,529.6 L1311.7,532.8 L1310.3,531.8 L1307.5,534.5 L1306.7,534.3 L1304.2,534.2 L1301.7,530.8 L1301.2,528.1 L1298.9,524.7 L1299.0,522.8 L1301.6,523.2Z" fill="#b9d99e"/><path d="M1412.1,523.7 L1413.0,525.3 L1415.8,523.7 L1417.0,525.4 L1417.0,527.1 L1415.5,528.9 L1412.9,531.9 L1410.8,533.5 L1412.3,535.4 L1409.2,535.5 L1405.8,537.0 L1404.7,539.6 L1402.5,543.6 L1399.3,545.4 L1397.3,546.6 L1393.6,546.5 L1391.1,545.2 L1386.7,544.9 L1386.0,543.4 L1388.2,540.4 L1393.2,536.5 L1395.8,535.7 L1398.7,534.2 L1402.1,532.1 L1404.5,530.1 L1406.3,527.1 L1407.8,526.1 L1408.4,523.8 L1411.2,522.0 L1412.1,523.7Z" fill="#b9d99e"/><path d="M1418.4,504.6 L1421.3,508.8 L1421.4,506.1 L1423.2,507.2 L1423.8,510.2 L1427.1,511.5 L1429.8,511.8 L1432.0,510.3 L1434.1,510.8 L1433.1,514.3 L1431.9,516.7 L1428.8,516.6 L1427.8,517.8 L1428.1,519.5 L1427.5,520.3 L1426.0,522.4 L1424.0,525.2 L1421.0,526.8 L1420.3,525.7 L1418.6,525.1 L1420.9,521.8 L1419.6,519.6 L1415.3,518.0 L1415.4,516.6 L1418.3,515.2 L1419.0,512.1 L1418.8,509.5 L1417.2,506.8 L1417.3,506.1 L1415.4,504.5 L1412.2,500.9 L1410.5,498.1 L1412.0,497.8 L1414.2,500.0 L1417.3,501.1 L1418.4,504.6Z" fill="#b9d99e"/><path d="M1388.5,448.6 L1387.0,449.6 L1384.8,448.5 L1381.9,446.7 L1379.3,444.6 L1376.7,441.8 L1376.1,440.4 L1377.8,440.5 L1380.1,441.8 L1381.8,443.2 L1383.1,444.3 L1386.4,446.8 L1388.5,448.6Z" fill="#b9d99e"/><path d="M1433.5,429.4 L1434.9,430.5 L1434.2,432.6 L1431.7,433.2 L1429.5,432.7 L1429.1,430.9 L1430.7,429.5 L1432.5,430.0 L1433.5,429.4Z" fill="#b9d99e"/><path d="M1437.5,427.2 L1434.9,428.0 L1434.4,426.6 L1436.4,425.7 L1437.7,425.5 L1440.0,424.3 L1440.0,426.2 L1437.5,427.2Z" fill="#b9d99e"/><path d="M0.3,426.0 L0.0,426.2 L0.0,424.3 L0.8,424.1 L0.3,426.0Z" fill="#b9d99e"/><path d="M1391.4,425.9 L1390.1,426.4 L1388.7,424.6 L1388.9,423.6 L1391.4,425.9Z" fill="#b9d99e"/><path d="M1388.4,419.7 L1389.1,423.0 L1388.0,422.5 L1387.2,422.7 L1386.6,421.6 L1386.5,418.5 L1388.4,419.7Z" fill="#b9d99e"/><path d="M920.2,414.2 L920.9,419.0 L921.9,420.9 L921.5,422.8 L920.8,424.0 L919.4,421.7 L918.7,422.8 L919.5,425.8 L919.1,427.5 L918.0,428.4 L917.7,431.8 L916.2,436.5 L914.2,442.0 L911.7,449.6 L910.2,455.1 L908.4,459.8 L905.1,460.7 L901.6,462.4 L899.3,461.4 L896.2,460.0 L895.1,457.8 L894.8,454.3 L893.4,451.1 L893.0,448.2 L893.7,445.3 L895.6,444.7 L895.6,443.3 L897.5,440.3 L897.9,437.7 L896.9,435.8 L896.2,433.3 L895.9,429.6 L897.2,427.4 L897.8,424.9 L899.8,424.7 L902.0,423.9 L903.5,423.2 L905.2,423.1 L907.5,420.8 L910.8,418.4 L912.0,416.4 L911.5,414.7 L913.2,415.1 L915.4,412.4 L915.5,410.0 L916.8,408.2 L918.2,409.9 L919.2,411.6 L920.2,414.2Z" fill="#b9d99e"/><path d="M1294.2,415.1 L1295.7,418.2 L1298.3,416.7 L1299.6,418.4 L1301.5,419.9 L1301.1,421.7 L1301.9,425.1 L1302.5,427.1 L1303.6,427.6 L1304.6,431.0 L1304.3,433.1 L1305.5,435.8 L1309.9,437.9 L1312.7,439.8 L1315.4,441.6 L1314.9,442.5 L1317.2,445.0 L1318.7,449.4 L1320.3,448.5 L1321.9,450.2 L1322.9,449.6 L1323.6,453.8 L1326.4,456.3 L1328.3,457.8 L1331.4,461.1 L1332.5,464.3 L1332.6,466.6 L1332.4,469.0 L1334.3,472.4 L1334.0,476.0 L1333.4,477.8 L1332.3,481.4 L1332.4,483.7 L1331.6,486.6 L1329.8,490.2 L1326.8,492.2 L1325.4,495.3 L1324.0,497.2 L1322.9,500.7 L1321.3,502.7 L1320.3,505.7 L1319.8,508.4 L1320.0,509.7 L1317.7,511.1 L1313.2,511.2 L1309.5,512.9 L1307.7,514.4 L1305.3,516.1 L1302.0,514.4 L1299.5,513.7 L1300.1,511.6 L1297.9,512.3 L1294.4,515.2 L1291.0,514.2 L1288.7,513.5 L1286.4,513.2 L1282.6,512.1 L1280.0,509.6 L1279.2,506.6 L1278.3,504.6 L1276.3,502.9 L1272.5,502.4 L1273.8,500.5 L1272.8,497.5 L1270.9,500.3 L1267.3,501.0 L1269.4,498.8 L1270.0,496.5 L1271.6,494.6 L1271.2,491.6 L1268.0,495.0 L1265.5,496.4 L1264.0,499.6 L1260.8,497.9 L1261.0,495.8 L1258.5,492.9 L1256.3,491.4 L1257.1,490.5 L1252.0,488.0 L1249.2,487.9 L1245.3,486.0 L1238.1,486.4 L1233.0,487.8 L1228.4,489.1 L1224.6,488.9 L1220.4,490.9 L1216.9,491.8 L1216.1,493.9 L1214.6,495.6 L1211.2,495.7 L1208.7,496.0 L1205.2,495.3 L1202.3,495.7 L1199.6,495.9 L1197.2,498.0 L1196.0,497.9 L1194.0,499.0 L1192.1,500.3 L1189.2,500.1 L1186.5,500.1 L1182.3,497.5 L1180.1,496.8 L1180.2,494.5 L1182.2,493.9 L1182.9,493.0 L1182.7,491.6 L1183.2,488.8 L1182.8,486.4 L1180.6,482.4 L1180.0,480.1 L1180.2,477.8 L1178.6,475.2 L1178.5,474.1 L1176.7,472.5 L1176.2,469.3 L1173.9,466.2 L1173.4,464.5 L1175.1,466.2 L1173.8,462.5 L1175.7,463.6 L1176.9,465.2 L1176.9,463.1 L1174.9,460.0 L1174.5,458.7 L1173.6,457.5 L1174.0,455.2 L1174.8,454.2 L1175.4,452.2 L1174.9,449.9 L1176.6,447.0 L1176.9,450.1 L1178.6,447.3 L1181.8,446.0 L1183.8,444.3 L1186.8,442.8 L1188.7,442.5 L1189.8,443.0 L1192.9,441.5 L1195.3,441.1 L1196.0,440.2 L1197.0,439.8 L1199.2,439.9 L1203.4,438.7 L1205.6,437.0 L1206.6,434.8 L1209.0,432.8 L1209.1,431.2 L1209.3,429.0 L1212.1,425.6 L1213.7,429.1 L1215.4,428.3 L1214.0,426.4 L1215.3,424.4 L1217.0,425.3 L1217.5,422.3 L1219.7,420.3 L1220.7,418.7 L1222.7,418.0 L1222.7,416.9 L1224.5,417.4 L1224.6,416.4 L1226.3,415.8 L1228.3,415.3 L1231.2,417.1 L1233.4,419.5 L1235.9,419.5 L1238.5,419.9 L1237.6,417.7 L1239.6,414.5 L1241.4,413.4 L1240.7,412.4 L1242.5,410.1 L1244.9,408.7 L1246.9,409.2 L1250.3,408.5 L1250.2,406.4 L1247.3,405.1 L1249.4,404.5 L1252.1,405.5 L1254.2,407.1 L1257.6,408.2 L1258.7,407.8 L1261.2,409.0 L1263.5,407.8 L1265.0,408.2 L1266.0,407.4 L1267.8,409.4 L1266.7,411.5 L1265.2,413.2 L1263.8,413.3 L1264.3,414.9 L1263.1,416.9 L1261.7,418.9 L1262.0,420.0 L1265.2,422.2 L1268.3,423.5 L1270.3,424.9 L1273.2,427.2 L1274.3,427.2 L1276.4,428.3 L1277.0,429.5 L1280.9,430.8 L1283.5,429.5 L1284.3,427.3 L1285.1,425.6 L1285.6,423.4 L1286.8,420.2 L1286.3,418.2 L1286.5,417.1 L1286.1,414.8 L1286.6,411.8 L1287.4,411.0 L1286.7,409.6 L1287.7,407.5 L1288.5,405.3 L1288.6,404.2 L1290.1,402.7 L1291.2,404.6 L1291.5,407.1 L1292.5,407.6 L1292.6,409.3 L1294.1,411.3 L1294.4,413.6 L1294.2,415.1Z" fill="#b9d99e"/><path d="M1368.5,401.9 L1369.6,403.3 L1366.8,403.3 L1365.3,400.8 L1367.7,401.8 L1368.5,401.9Z" fill="#b9d99e"/><path d="M1202.9,401.0 L1201.2,401.0 L1195.9,398.2 L1199.6,397.4 L1201.7,398.7 L1203.1,399.9 L1202.9,401.0Z" fill="#b9d99e"/><path d="M1363.4,399.5 L1361.9,399.6 L1359.4,399.2 L1358.6,398.6 L1358.8,397.0 L1361.5,397.6 L1362.8,398.4 L1363.4,399.5Z" fill="#b9d99e"/><path d="M1366.7,398.4 L1366.1,399.1 L1363.2,395.7 L1362.3,393.3 L1363.7,393.3 L1365.1,396.5 L1366.7,398.4Z" fill="#b9d99e"/><path d="M1217.7,400.6 L1214.3,401.4 L1213.8,401.0 L1214.2,399.6 L1215.9,397.2 L1219.9,395.6 L1220.3,394.6 L1223.8,393.7 L1226.6,393.6 L1227.8,393.1 L1229.3,393.6 L1227.9,394.7 L1223.7,396.4 L1220.4,397.6 L1217.7,400.6Z" fill="#b9d99e"/><path d="M1191.6,392.4 L1193.0,393.4 L1195.5,393.1 L1196.5,394.8 L1191.9,395.6 L1189.1,396.2 L1187.0,396.1 L1188.3,393.8 L1190.5,393.8 L1191.6,392.4Z" fill="#b9d99e"/><path d="M1211.6,392.4 L1211.0,394.6 L1205.0,395.7 L1199.7,395.2 L1199.7,393.8 L1202.9,392.9 L1205.4,394.1 L1208.0,393.8 L1211.6,392.4Z" fill="#b9d99e"/><path d="M1359.5,393.3 L1359.7,394.2 L1356.5,392.5 L1354.3,391.0 L1352.8,389.7 L1353.4,389.3 L1355.3,390.2 L1358.6,392.1 L1359.5,393.3Z" fill="#b9d99e"/><path d="M1350.2,389.4 L1349.4,389.6 L1347.6,388.7 L1346.0,387.1 L1346.2,386.4 L1348.6,388.1 L1350.2,389.4Z" fill="#b9d99e"/><path d="M1154.5,387.1 L1162.2,387.5 L1163.0,385.9 L1170.5,387.8 L1171.9,390.4 L1177.9,391.1 L1182.8,393.5 L1178.3,395.0 L1173.9,393.4 L1170.2,393.5 L1166.1,393.2 L1162.3,392.5 L1157.7,391.0 L1154.8,390.6 L1153.1,391.1 L1145.8,389.4 L1145.1,387.7 L1141.5,387.4 L1144.2,383.6 L1149.1,383.8 L1152.3,385.4 L1153.9,385.7 L1154.5,387.1Z" fill="#b9d99e"/><path d="M1258.9,384.9 L1256.8,387.6 L1256.5,384.6 L1257.2,383.1 L1258.0,381.8 L1258.9,383.0 L1258.9,384.9Z" fill="#b9d99e"/><path d="M1343.5,387.3 L1342.4,387.7 L1340.7,386.1 L1338.9,383.6 L1338.1,380.6 L1338.6,380.2 L1339.0,381.4 L1340.3,382.3 L1342.2,384.8 L1344.1,386.2 L1343.5,387.3Z" fill="#b9d99e"/><path d="M1327.9,381.9 L1325.8,382.2 L1325.2,383.4 L1323.0,384.3 L1321.0,385.3 L1318.8,385.3 L1315.6,384.1 L1313.3,383.0 L1313.6,381.8 L1317.2,382.3 L1319.4,382.0 L1320.0,380.1 L1320.6,380.0 L1320.9,382.1 L1323.2,381.8 L1324.4,380.5 L1326.6,379.0 L1326.2,376.7 L1328.5,376.6 L1329.4,377.3 L1329.3,379.5 L1327.9,381.9Z" fill="#b9d99e"/><path d="M1229.0,373.8 L1227.5,375.2 L1224.7,374.4 L1224.0,372.7 L1228.0,372.5 L1229.0,373.8Z" fill="#b9d99e"/><path d="M1241.9,372.4 L1243.3,375.4 L1240.0,373.8 L1236.6,373.5 L1234.4,373.7 L1231.6,373.6 L1232.5,371.4 L1237.5,371.2 L1241.9,372.4Z" fill="#b9d99e"/><path d="M1332.6,378.0 L1331.3,379.1 L1330.6,376.7 L1329.6,375.2 L1327.8,373.8 L1325.5,372.1 L1322.6,371.0 L1323.8,370.0 L1325.9,371.1 L1327.3,372.0 L1329.0,373.0 L1330.6,374.6 L1332.1,375.9 L1332.6,378.0Z" fill="#b9d99e"/><path d="M1256.6,364.6 L1257.7,371.1 L1261.8,373.5 L1265.2,369.2 L1269.8,366.8 L1273.3,366.8 L1276.7,368.2 L1279.7,369.6 L1284.0,370.4 L1290.9,373.2 L1298.3,375.4 L1301.1,377.5 L1303.3,379.5 L1303.9,381.9 L1310.6,384.3 L1311.6,386.5 L1307.9,386.9 L1308.8,389.6 L1312.3,392.2 L1314.9,396.4 L1317.2,396.3 L1317.1,398.1 L1320.2,398.7 L1319.0,399.5 L1323.2,401.2 L1322.8,402.3 L1320.1,402.6 L1319.1,401.6 L1315.7,401.1 L1311.7,400.5 L1308.5,398.0 L1306.3,395.8 L1304.2,392.3 L1299.0,390.5 L1295.6,391.7 L1293.1,393.0 L1293.7,395.9 L1290.5,397.3 L1288.3,396.6 L1284.1,396.5 L1280.6,393.2 L1276.5,392.4 L1275.5,393.5 L1270.5,393.6 L1272.2,390.4 L1274.7,389.3 L1273.6,384.9 L1271.7,381.6 L1264.0,378.2 L1260.7,377.9 L1254.7,374.2 L1253.5,376.1 L1251.9,376.5 L1251.0,375.0 L1251.0,373.2 L1248.0,371.3 L1252.3,369.8 L1255.1,369.9 L1254.8,368.9 L1248.9,368.9 L1247.3,366.5 L1243.8,365.7 L1242.1,363.8 L1247.5,362.8 L1249.5,361.5 L1255.9,363.1 L1256.6,364.6Z" fill="#b9d99e"/><path d="M1221.0,354.3 L1217.7,358.3 L1214.7,359.1 L1210.9,358.3 L1204.2,358.5 L1200.7,359.1 L1200.2,362.1 L1203.7,365.6 L1205.9,363.8 L1213.4,362.5 L1213.0,364.3 L1211.3,363.7 L1209.6,366.1 L1206.0,367.6 L1209.8,372.7 L1209.1,374.1 L1212.7,378.7 L1212.6,381.4 L1210.5,382.5 L1208.9,381.1 L1210.9,377.9 L1207.0,379.4 L1206.0,378.3 L1206.5,376.8 L1203.6,374.4 L1203.9,370.5 L1201.2,371.7 L1201.6,376.4 L1201.7,382.1 L1199.2,382.7 L1197.5,381.5 L1198.6,377.8 L1198.0,374.0 L1196.3,373.9 L1195.1,371.2 L1196.7,368.6 L1197.3,365.4 L1199.3,359.4 L1200.1,357.7 L1203.5,354.8 L1206.7,355.9 L1211.7,356.5 L1216.3,356.3 L1220.3,353.4 L1221.0,354.3Z" fill="#b9d99e"/><path d="M1234.8,355.5 L1234.5,359.0 L1232.5,358.6 L1231.9,361.0 L1233.5,363.1 L1232.4,363.6 L1230.8,361.1 L1229.6,356.0 L1230.4,352.8 L1231.7,351.3 L1232.0,353.5 L1234.4,353.8 L1234.8,355.5Z" fill="#b9d99e"/><path d="M1143.3,383.4 L1138.8,383.5 L1135.5,380.1 L1130.3,376.9 L1128.6,374.5 L1125.6,371.2 L1123.6,368.2 L1120.6,362.6 L1117.1,359.3 L1115.9,355.8 L1114.4,352.7 L1110.8,350.2 L1108.7,346.8 L1105.7,344.5 L1101.5,340.1 L1101.2,338.1 L1103.7,338.2 L1109.9,339.0 L1113.5,342.9 L1116.6,345.6 L1118.8,347.3 L1122.6,351.6 L1126.6,351.7 L1130.0,354.4 L1132.3,357.8 L1135.4,359.6 L1133.8,362.8 L1136.0,364.2 L1137.5,364.3 L1138.2,367.1 L1139.6,369.4 L1142.5,369.7 L1144.4,372.2 L1143.4,377.2 L1143.3,383.4Z" fill="#b9d99e"/><path d="M1191.5,352.7 L1196.0,356.4 L1191.2,356.9 L1189.9,359.6 L1190.1,363.2 L1186.2,366.0 L1186.1,369.9 L1184.6,376.1 L1184.0,374.6 L1179.5,376.4 L1177.9,374.0 L1175.0,373.8 L1173.0,372.5 L1168.3,373.9 L1166.8,372.0 L1164.2,372.2 L1160.9,371.7 L1160.3,366.4 L1158.3,365.3 L1156.4,361.8 L1155.8,358.3 L1156.3,354.6 L1158.7,352.0 L1161.6,353.3 L1164.7,352.6 L1165.5,349.2 L1167.2,348.5 L1172.0,347.6 L1174.9,344.4 L1176.8,341.9 L1178.4,340.4 L1181.8,338.2 L1184.9,335.4 L1186.9,332.3 L1188.5,332.3 L1190.6,334.3 L1190.8,336.1 L1193.4,337.2 L1196.7,338.4 L1196.4,339.9 L1193.8,340.1 L1194.5,342.1 L1191.5,343.4 L1189.3,347.1 L1192.2,350.8 L1191.5,352.7Z" fill="#b9d99e"/><path d="M1225.5,326.3 L1225.9,329.0 L1226.1,331.2 L1224.8,334.9 L1223.3,330.8 L1221.5,332.9 L1222.7,335.8 L1221.6,337.7 L1216.9,335.4 L1215.8,332.5 L1217.0,330.6 L1214.4,328.7 L1213.2,330.3 L1211.3,330.2 L1208.3,332.4 L1207.7,331.2 L1209.2,327.9 L1211.8,326.7 L1214.0,325.2 L1215.4,327.0 L1218.4,325.9 L1219.1,324.2 L1221.9,324.1 L1221.6,321.0 L1224.9,322.9 L1225.2,324.9 L1225.5,326.3Z" fill="#b9d99e"/><path d="M1044.9,335.2 L1041.4,336.1 L1039.5,332.9 L1038.8,327.2 L1040.6,320.7 L1043.4,322.9 L1045.2,325.7 L1047.2,329.9 L1046.5,334.1 L1044.9,335.2Z" fill="#b9d99e"/><path d="M476.3,319.6 L472.9,320.0 L472.2,319.6 L473.4,318.5 L473.3,317.0 L475.6,316.4 L476.4,316.6 L476.3,319.6Z" fill="#b9d99e"/><path d="M1215.9,318.9 L1214.5,320.2 L1213.2,322.7 L1212.0,323.9 L1209.5,321.1 L1210.3,320.1 L1211.3,319.0 L1211.8,316.5 L1214.0,316.2 L1213.4,318.9 L1216.3,315.1 L1215.9,318.9Z" fill="#b9d99e"/><path d="M1194.0,322.7 L1188.7,326.5 L1190.7,323.7 L1193.5,321.3 L1195.9,318.5 L1198.0,314.5 L1198.8,317.8 L1196.1,320.0 L1194.0,322.7Z" fill="#b9d99e"/><path d="M1207.5,312.4 L1209.9,313.7 L1212.5,313.7 L1212.4,315.3 L1210.6,317.0 L1208.0,318.2 L1207.9,316.4 L1208.2,314.3 L1207.5,312.4Z" fill="#b9d99e"/><path d="M1222.0,311.3 L1223.1,315.8 L1220.0,314.8 L1220.1,316.1 L1221.1,318.6 L1219.2,319.5 L1219.0,316.6 L1217.8,316.4 L1217.2,314.0 L1219.6,314.3 L1219.5,312.8 L1217.1,309.8 L1220.9,309.9 L1222.0,311.3Z" fill="#b9d99e"/><path d="M1206.1,307.7 L1205.0,311.2 L1203.3,309.2 L1201.3,306.1 L1204.7,306.3 L1206.1,307.7Z" fill="#b9d99e"/><path d="M1205.3,286.0 L1207.8,287.1 L1209.0,286.1 L1209.3,287.1 L1208.7,288.8 L1210.1,291.6 L1209.0,295.0 L1206.7,296.3 L1206.0,299.5 L1206.9,302.7 L1209.0,303.1 L1210.8,302.7 L1215.8,304.9 L1215.4,307.0 L1216.7,308.0 L1216.3,309.9 L1213.2,307.9 L1211.7,305.8 L1210.7,307.3 L1208.1,304.9 L1204.5,305.5 L1202.5,304.6 L1202.7,302.9 L1204.0,301.9 L1202.8,301.0 L1202.3,302.4 L1200.3,300.1 L1199.7,298.4 L1199.5,294.5 L1201.1,295.9 L1201.6,289.6 L1202.9,286.0 L1205.3,286.0Z" fill="#b9d99e"/><path d="M457.6,287.1 L456.6,288.1 L453.6,288.1 L451.3,288.2 L451.0,286.5 L451.6,285.9 L454.9,285.9 L456.9,286.3 L457.6,287.1Z" fill="#b9d99e"/><path d="M412.4,288.5 L411.2,289.2 L408.9,288.6 L406.6,287.1 L407.1,286.2 L408.8,285.9 L409.7,286.0 L412.4,286.4 L414.5,287.4 L415.2,288.5 L412.4,288.5Z" fill="#b9d99e"/><path d="M429.7,280.5 L433.2,281.1 L433.7,280.5 L436.8,280.5 L439.1,281.5 L440.2,281.4 L440.9,282.8 L443.1,282.7 L443.0,283.9 L444.8,284.1 L446.7,285.6 L445.2,287.2 L443.3,286.3 L441.5,286.5 L440.2,286.3 L439.5,287.0 L437.9,287.3 L437.3,286.3 L436.0,286.9 L434.4,289.6 L433.4,289.0 L433.2,287.8 L430.5,287.1 L428.6,287.4 L426.2,287.1 L424.3,287.9 L422.2,286.6 L422.5,285.3 L426.2,285.9 L429.2,286.2 L430.7,285.3 L428.8,283.6 L428.9,282.1 L426.3,281.4 L427.2,280.3 L429.7,280.5Z" fill="#b9d99e"/><path d="M1161.4,285.3 L1157.9,287.2 L1154.6,286.0 L1154.5,282.5 L1156.5,280.7 L1160.8,279.6 L1163.1,279.7 L1164.0,281.2 L1162.3,283.0 L1161.4,285.3Z" fill="#b9d99e"/><path d="M97.8,283.7 L97.2,284.3 L96.3,283.8 L96.4,282.6 L95.7,281.2 L95.9,280.7 L96.6,280.1 L96.3,279.3 L96.6,278.9 L96.9,279.0 L98.4,279.7 L99.1,280.0 L99.8,280.6 L100.8,282.0 L100.7,282.2 L99.1,283.0 L97.8,283.7Z" fill="#b9d99e"/><path d="M95.7,277.4 L94.3,277.7 L93.7,276.9 L93.2,276.5 L93.2,276.3 L93.5,276.0 L95.0,276.3 L96.0,276.9 L95.7,277.4Z" fill="#b9d99e"/><path d="M93.0,275.3 L92.8,275.7 L90.7,275.6 L91.0,275.1 L93.0,275.3Z" fill="#b9d99e"/><path d="M89.4,274.7 L89.2,274.9 L88.9,274.9 L87.5,274.8 L87.0,273.8 L86.8,273.7 L87.9,273.1 L88.2,273.4 L89.4,274.7Z" fill="#b9d99e"/><path d="M82.6,272.1 L82.1,272.5 L80.8,271.7 L81.0,271.4 L81.6,271.1 L82.5,271.1 L82.6,272.1Z" fill="#b9d99e"/><path d="M401.3,268.9 L402.9,270.4 L406.6,270.0 L408.0,270.9 L411.4,273.4 L413.9,275.2 L415.2,275.1 L417.6,275.9 L417.3,277.1 L420.3,277.2 L423.3,278.9 L422.8,279.8 L420.2,280.3 L417.5,280.5 L414.7,280.2 L409.0,280.6 L411.7,278.3 L410.0,277.3 L407.5,277.0 L406.1,275.9 L405.1,273.6 L402.9,273.8 L399.1,272.7 L397.9,271.9 L392.7,271.2 L391.3,270.5 L392.8,269.5 L388.9,269.2 L386.0,271.3 L384.4,271.4 L383.8,272.4 L381.8,272.8 L380.1,272.4 L382.2,271.2 L383.1,269.7 L384.9,268.8 L386.9,268.1 L390.0,267.7 L390.9,267.2 L394.4,267.5 L397.5,267.6 L401.3,268.9Z" fill="#b9d99e"/><path d="M409.9,265.0 L408.9,265.2 L407.9,262.9 L406.4,261.7 L407.2,259.2 L408.4,259.3 L409.8,262.6 L409.9,265.0Z" fill="#b9d99e"/><path d="M1204.7,268.8 L1203.0,272.1 L1200.9,268.7 L1200.4,265.8 L1202.8,261.8 L1206.0,258.8 L1207.8,260.0 L1207.1,262.4 L1204.7,268.8Z" fill="#b9d99e"/><path d="M408.7,253.7 L404.4,254.3 L404.1,252.8 L406.0,252.5 L408.6,252.6 L408.7,253.7Z" fill="#b9d99e"/><path d="M412.0,253.6 L411.3,256.5 L410.6,256.0 L410.6,253.9 L408.8,252.3 L408.8,251.8 L412.0,253.6Z" fill="#b9d99e"/><path d="M1258.6,223.4 L1259.1,224.8 L1256.8,227.2 L1255.2,225.9 L1253.1,226.8 L1252.1,229.2 L1249.5,228.0 L1249.5,226.1 L1251.7,223.8 L1254.0,224.2 L1255.6,222.5 L1258.6,223.4Z" fill="#b9d99e"/><path d="M858.3,217.3 L855.6,219.0 L855.9,219.8 L856.0,220.1 L851.9,221.7 L850.0,221.2 L849.0,219.6 L850.9,219.4 L851.2,219.4 L851.8,218.5 L854.7,218.5 L858.3,217.3Z" fill="#b9d99e"/><path d="M814.8,217.2 L817.0,218.5 L820.1,218.3 L823.1,218.6 L823.0,219.3 L825.2,218.8 L824.7,220.0 L818.9,220.3 L818.9,219.7 L814.1,218.9 L814.8,217.2Z" fill="#b9d99e"/><path d="M782.1,207.1 L780.6,210.2 L781.2,211.5 L780.4,213.5 L777.3,212.0 L775.3,211.6 L769.7,209.5 L770.3,207.5 L775.0,207.9 L779.0,207.4 L782.1,207.1Z" fill="#b9d99e"/><path d="M756.8,195.2 L759.2,198.0 L758.7,203.3 L756.9,203.0 L755.2,204.4 L753.7,203.3 L753.6,198.5 L752.6,196.2 L754.8,196.4 L756.8,195.2Z" fill="#b9d99e"/><path d="M1283.9,211.4 L1282.4,214.6 L1283.1,216.6 L1281.0,219.4 L1275.9,221.3 L1268.9,221.6 L1263.2,226.1 L1260.5,224.6 L1260.3,221.6 L1253.4,222.5 L1248.6,224.4 L1243.9,224.5 L1248.0,227.4 L1245.3,234.2 L1242.7,235.9 L1240.8,234.3 L1241.8,230.7 L1239.3,229.6 L1237.6,226.8 L1241.4,225.6 L1243.5,223.1 L1247.5,221.0 L1250.5,218.3 L1258.4,217.1 L1262.7,217.9 L1266.9,210.8 L1269.6,212.7 L1275.4,208.7 L1277.7,207.1 L1280.2,202.2 L1279.5,197.7 L1281.2,195.2 L1285.5,194.5 L1287.7,200.0 L1287.5,203.3 L1283.8,207.3 L1283.9,211.4Z" fill="#b9d99e"/><path d="M758.2,191.4 L756.9,194.5 L755.1,193.7 L754.2,191.0 L755.0,189.5 L757.6,188.0 L758.2,191.4Z" fill="#b9d99e"/><path d="M1295.6,183.3 L1298.5,184.2 L1301.3,182.5 L1302.2,187.0 L1296.2,188.0 L1292.7,192.0 L1286.4,189.3 L1284.3,193.7 L1279.8,193.7 L1279.3,189.7 L1281.2,186.7 L1285.5,186.4 L1286.7,180.9 L1287.9,177.8 L1292.6,182.0 L1295.6,183.3Z" fill="#b9d99e"/><path d="M465.3,173.8 L468.2,174.3 L472.0,174.2 L470.0,175.9 L468.5,176.1 L463.4,174.4 L462.4,173.1 L463.9,171.9 L465.3,173.8Z" fill="#b9d99e"/><path d="M472.8,163.6 L470.8,163.7 L465.6,162.4 L461.9,160.5 L463.3,160.2 L468.6,161.2 L472.7,162.8 L472.8,163.6Z" fill="#b9d99e"/><path d="M226.0,166.0 L223.9,166.5 L217.4,164.7 L216.2,163.3 L212.6,161.9 L211.9,160.7 L207.8,160.0 L206.2,157.8 L206.6,156.9 L210.8,157.8 L213.2,158.4 L217.0,158.8 L218.3,160.2 L220.3,162.1 L224.3,163.8 L226.0,166.0Z" fill="#b9d99e"/><path d="M495.5,157.3 L492.8,160.8 L495.4,159.4 L498.1,160.3 L496.7,161.7 L500.3,162.7 L502.1,161.8 L506.1,163.0 L504.9,165.9 L507.7,165.2 L508.2,167.4 L509.4,169.9 L507.7,173.4 L505.9,173.5 L503.3,172.8 L504.2,169.5 L503.0,169.0 L498.4,172.5 L496.0,172.3 L498.8,170.4 L495.0,169.5 L490.7,169.7 L482.9,169.6 L482.3,168.4 L484.8,167.0 L483.1,165.9 L486.4,163.5 L490.6,157.1 L493.0,154.9 L496.5,153.5 L498.4,153.6 L497.6,154.7 L495.5,157.3Z" fill="#b9d99e"/><path d="M189.2,143.8 L189.2,143.8 L189.2,143.8 L189.2,143.8 L193.0,143.5 L191.8,148.1 L195.3,151.3 L193.7,151.3 L191.3,149.4 L189.8,147.6 L187.8,146.4 L187.0,144.6 L187.3,143.3 L189.2,143.8Z" fill="#b9d99e"/><path d="M1294.6,157.0 L1298.6,164.1 L1292.7,162.8 L1290.2,168.6 L1294.1,172.7 L1294.0,175.4 L1291.0,173.0 L1288.4,176.1 L1287.6,172.8 L1288.1,168.9 L1287.6,164.6 L1288.5,161.5 L1288.7,156.2 L1286.4,152.3 L1286.7,146.8 L1290.4,145.0 L1288.8,143.1 L1290.6,142.5 L1291.7,145.2 L1293.0,149.0 L1292.9,153.0 L1294.6,157.0Z" fill="#b9d99e"/><path d="M692.8,151.0 L685.8,153.3 L680.1,152.7 L683.3,148.5 L681.2,144.5 L686.7,141.3 L689.7,139.5 L693.1,139.3 L697.4,141.8 L695.2,144.5 L695.9,147.4 L692.8,151.0Z" fill="#b9d99e"/><path d="M770.8,137.6 L768.4,140.8 L764.2,138.5 L763.6,136.9 L769.5,135.6 L770.8,137.6Z" fill="#b9d99e"/><path d="M108.0,131.5 L104.0,133.1 L101.9,132.0 L101.3,130.2 L104.9,128.7 L107.1,128.1 L109.7,128.4 L111.4,129.6 L108.0,131.5Z" fill="#b9d99e"/><path d="M708.0,125.5 L703.7,129.8 L707.8,129.2 L712.2,129.3 L711.1,132.5 L707.5,136.1 L711.7,136.4 L715.5,141.5 L718.3,142.1 L720.7,146.7 L721.9,148.3 L726.7,149.0 L726.2,151.6 L724.2,152.8 L725.8,154.8 L722.2,156.9 L716.8,156.9 L710.0,158.0 L708.2,157.2 L705.5,159.1 L701.8,158.6 L699.0,160.2 L696.9,159.4 L702.8,155.2 L706.3,154.3 L700.1,153.6 L698.9,152.0 L703.1,150.8 L700.9,148.6 L701.7,146.0 L707.6,146.4 L708.2,144.1 L705.5,141.5 L700.6,140.8 L699.7,139.8 L701.1,138.0 L699.8,136.9 L697.7,138.8 L697.4,134.9 L695.4,132.9 L696.9,128.7 L700.0,125.5 L703.2,125.8 L708.0,125.5Z" fill="#b9d99e"/><path d="M57.7,120.4 L55.2,121.0 L52.6,120.2 L50.2,119.1 L54.1,118.5 L57.3,118.8 L57.7,120.4Z" fill="#b9d99e"/><path d="M402.9,111.4 L401.4,113.5 L399.6,113.1 L398.6,111.9 L398.7,111.7 L400.3,110.5 L401.9,110.5 L402.9,111.4Z" fill="#b9d99e"/><path d="M392.4,109.2 L387.7,111.4 L384.9,111.3 L384.0,110.2 L387.0,108.3 L392.5,108.4 L392.4,109.2Z" fill="#b9d99e"/><path d="M33.1,104.9 L35.5,105.6 L38.0,105.2 L41.3,106.3 L45.2,106.8 L44.9,107.2 L41.9,108.1 L38.8,107.2 L37.3,106.5 L33.8,106.7 L32.8,106.4 L33.1,104.9Z" fill="#b9d99e"/><path d="M379.4,97.4 L380.1,99.1 L382.1,98.5 L384.5,99.6 L388.8,100.9 L393.4,102.2 L393.8,104.1 L396.7,103.8 L399.6,105.1 L396.0,106.4 L389.8,105.4 L387.6,103.6 L383.6,105.7 L377.9,107.8 L376.5,105.5 L371.1,105.8 L374.6,103.9 L375.1,100.7 L376.5,97.0 L379.4,97.4Z" fill="#b9d99e"/><path d="M662.0,94.2 L661.0,96.8 L665.6,99.5 L660.4,102.5 L648.8,105.3 L645.4,106.0 L640.1,105.4 L628.9,104.2 L632.9,102.4 L624.2,100.4 L631.3,99.7 L631.1,98.5 L622.7,97.6 L625.4,94.9 L631.5,94.4 L637.7,97.1 L643.8,94.9 L648.8,96.0 L655.3,93.9 L662.0,94.2Z" fill="#b9d99e"/><path d="M416.5,91.4 L412.1,91.6 L411.1,89.6 L412.8,87.4 L416.4,86.9 L419.5,88.0 L419.6,89.7 L419.1,90.2 L416.5,91.4Z" fill="#b9d99e"/><path d="M19.9,93.7 L22.6,94.7 L21.7,91.8 L32.6,92.3 L40.4,96.1 L36.4,97.8 L29.9,98.2 L29.8,102.2 L28.2,103.0 L24.4,102.9 L21.4,101.5 L16.1,100.3 L15.2,98.6 L11.1,97.9 L6.6,98.4 L4.4,97.0 L5.3,95.6 L0.5,96.5 L2.3,98.4 L0.0,100.1 L0.0,84.1 L9.8,87.2 L20.3,91.2 L19.9,93.7Z" fill="#b9d99e"/><path d="M337.4,83.6 L334.9,85.0 L329.5,83.8 L326.3,84.2 L320.8,82.4 L324.3,81.2 L327.1,79.4 L331.4,80.6 L333.8,81.3 L335.0,82.0 L337.4,83.6Z" fill="#b9d99e"/><path d="M1440.0,76.7 L1435.6,76.9 L1434.9,75.6 L1440.0,73.9 L1440.0,76.7Z" fill="#b9d99e"/><path d="M5.2,76.4 L0.0,76.7 L0.0,73.9 L0.5,73.8 L3.9,73.8 L9.7,74.9 L9.3,75.5 L5.2,76.4Z" fill="#b9d99e"/><path d="M357.8,82.0 L357.8,86.1 L363.1,83.0 L367.9,85.5 L366.7,88.5 L370.6,91.2 L374.8,88.3 L377.7,84.9 L377.9,80.5 L383.6,80.8 L389.5,81.4 L394.9,83.4 L395.1,85.3 L392.1,87.5 L395.0,89.6 L394.5,91.6 L386.6,94.4 L381.1,95.0 L376.9,93.8 L375.7,95.8 L371.9,99.1 L370.7,100.9 L366.1,103.6 L360.3,103.9 L357.2,105.6 L356.9,108.2 L352.3,108.7 L347.4,111.9 L343.0,116.4 L341.5,119.6 L341.3,124.2 L347.1,124.9 L348.9,128.6 L350.8,131.7 L356.4,130.9 L363.8,132.6 L367.8,134.1 L370.7,136.0 L375.7,137.1 L380.0,138.8 L386.6,139.0 L390.9,139.4 L390.3,142.9 L391.5,146.9 L394.4,151.4 L400.3,155.2 L403.4,153.9 L405.6,149.8 L403.5,143.4 L400.7,141.3 L407.1,139.5 L411.6,136.6 L413.8,133.9 L413.5,131.2 L410.8,127.8 L405.9,124.8 L410.7,120.6 L408.9,117.0 L407.6,110.7 L410.4,109.8 L417.2,110.9 L421.3,111.3 L424.6,110.2 L428.4,111.6 L433.3,113.9 L434.5,115.5 L441.6,115.8 L441.5,119.1 L442.8,124.2 L446.5,124.8 L449.4,127.2 L455.2,124.9 L459.0,120.5 L461.7,118.7 L464.8,122.2 L470.0,127.3 L474.4,132.1 L472.8,134.6 L478.1,136.9 L481.7,139.2 L488.1,140.2 L490.7,141.5 L492.3,144.9 L495.4,145.4 L497.0,146.9 L497.3,151.4 L494.4,152.9 L491.5,154.3 L484.9,155.7 L479.9,159.0 L473.1,159.7 L464.6,158.8 L458.5,158.8 L454.4,159.1 L451.1,162.0 L446.0,163.7 L440.2,169.0 L435.6,172.7 L439.0,172.1 L445.4,166.8 L453.8,163.5 L459.8,163.1 L463.3,165.0 L459.5,167.7 L460.8,172.0 L462.1,175.0 L467.3,177.0 L473.9,176.5 L477.9,172.0 L478.2,174.9 L480.8,176.3 L475.8,178.9 L467.0,181.3 L463.0,182.9 L458.5,185.8 L455.5,185.5 L455.4,182.1 L462.3,178.8 L455.9,179.0 L451.5,179.4 L452.1,180.8 L447.9,182.7 L443.8,184.1 L439.5,185.3 L437.2,187.9 L436.7,188.5 L436.7,190.7 L438.0,192.8 L439.7,192.9 L439.3,191.4 L440.5,192.3 L440.1,193.5 L437.4,194.1 L435.5,194.0 L432.6,194.7 L430.8,194.9 L428.5,195.1 L425.2,196.3 L431.0,195.5 L432.2,196.3 L426.6,197.5 L424.1,197.5 L424.2,197.0 L423.0,198.1 L424.2,198.3 L423.3,201.2 L420.4,204.2 L420.1,203.2 L419.2,203.0 L417.9,202.0 L418.7,204.2 L419.7,204.9 L419.8,206.4 L418.5,207.9 L416.2,211.1 L415.9,211.0 L417.1,208.3 L415.1,206.7 L414.6,203.4 L413.8,205.1 L414.7,207.7 L412.2,207.1 L414.8,208.3 L415.0,212.1 L416.1,212.4 L416.5,213.8 L417.1,217.8 L414.5,220.8 L410.4,222.0 L407.8,224.3 L405.8,224.6 L403.8,226.0 L403.2,227.4 L398.8,230.0 L396.5,231.9 L394.7,234.2 L394.0,237.1 L394.7,239.9 L396.1,243.3 L397.9,246.1 L397.9,247.8 L399.8,252.5 L399.6,255.2 L399.5,256.7 L398.5,259.2 L397.3,259.7 L395.3,259.2 L394.7,257.4 L393.2,256.5 L391.0,253.1 L389.2,250.0 L388.6,248.5 L389.4,245.8 L388.3,243.6 L385.2,240.3 L383.6,239.6 L379.6,241.5 L378.8,241.3 L376.9,239.4 L374.4,238.4 L369.9,238.9 L366.3,238.5 L363.3,238.7 L361.6,239.3 L362.3,240.4 L362.3,242.0 L363.1,242.8 L362.4,243.4 L360.9,242.8 L359.4,243.5 L356.5,243.4 L353.5,241.3 L350.0,241.8 L347.1,240.9 L344.6,241.1 L341.2,242.1 L337.6,245.0 L333.6,246.8 L331.4,248.7 L330.5,250.5 L330.5,253.2 L330.7,255.2 L331.4,256.5 L331.4,256.5 L331.4,256.5 L329.9,260.0 L329.2,262.9 L328.9,268.3 L328.5,270.2 L329.2,272.4 L330.4,274.4 L331.2,277.5 L333.9,280.4 L334.8,282.7 L336.4,284.7 L340.6,285.7 L342.3,287.4 L345.8,286.3 L348.9,285.9 L351.9,285.2 L354.4,284.5 L356.9,282.9 L357.9,280.5 L358.2,277.2 L358.9,276.0 L361.6,275.0 L365.8,274.0 L369.4,274.2 L371.8,273.8 L372.8,274.7 L372.6,276.6 L370.5,279.0 L369.5,281.4 L370.3,282.1 L369.7,283.8 L368.7,287.0 L367.6,285.9 L366.8,286.0 L366.8,286.6 L367.6,286.6 L367.5,287.7 L366.9,289.4 L367.2,290.0 L366.8,291.5 L367.0,291.9 L366.6,293.9 L365.8,294.9 L365.1,295.1 L364.3,296.5 L365.6,297.2 L365.9,296.6 L367.1,297.1 L367.5,297.2 L368.4,296.5 L369.5,296.5 L369.9,296.8 L370.5,296.6 L372.4,297.0 L374.2,296.9 L375.5,296.4 L376.0,296.0 L377.3,296.2 L378.2,296.5 L379.3,296.4 L380.1,296.0 L381.9,296.6 L382.5,296.7 L383.7,297.4 L384.9,298.3 L386.4,298.9 L387.4,300.0 L387.1,300.4 L386.9,301.3 L387.3,302.8 L386.4,304.1 L385.9,305.7 L385.8,307.5 L386.0,308.5 L386.1,310.3 L385.5,310.7 L385.1,312.4 L385.4,313.5 L384.6,314.5 L384.8,315.6 L385.4,316.2 L386.4,318.4 L387.9,320.0 L389.8,321.7 L391.3,323.2 L391.2,324.0 L392.8,324.2 L393.1,323.9 L394.2,324.9 L396.2,324.6 L397.9,323.6 L400.3,322.7 L401.7,321.6 L403.9,321.8 L403.8,322.2 L406.0,322.3 L407.8,323.0 L409.1,324.2 L410.6,325.3 L412.7,325.4 L415.7,322.7 L417.3,322.2 L417.3,320.9 L418.1,317.5 L420.4,315.7 L422.9,315.6 L423.2,314.8 L426.3,315.1 L429.5,313.1 L431.0,312.2 L433.0,310.3 L434.4,310.5 L435.5,311.5 L434.7,312.9 L434.6,313.8 L432.2,314.3 L433.5,316.1 L433.5,318.2 L431.7,320.5 L433.2,323.7 L434.9,323.5 L435.8,320.6 L434.6,319.2 L434.4,316.1 L439.4,314.5 L438.8,312.6 L440.2,311.4 L441.7,314.2 L444.5,314.2 L447.1,316.5 L447.2,317.8 L450.8,317.8 L455.1,317.4 L457.4,319.2 L460.4,319.7 L462.7,318.4 L462.7,317.4 L467.7,317.2 L472.5,317.1 L469.1,318.3 L470.4,320.2 L473.6,320.5 L476.7,322.5 L477.3,325.7 L479.4,325.6 L481.0,326.5 L483.6,328.0 L486.1,330.6 L486.2,332.7 L487.7,332.8 L489.8,334.7 L491.4,336.1 L496.2,336.9 L496.6,336.2 L499.9,335.9 L504.2,337.0 L505.5,337.4 L508.5,338.4 L512.7,341.7 L513.4,343.4 L514.7,343.2 L515.7,345.4 L518.0,352.4 L520.1,353.1 L520.2,355.8 L517.2,359.1 L518.4,360.3 L525.5,360.9 L525.7,365.0 L528.7,362.3 L533.7,363.8 L540.4,366.2 L542.3,368.6 L541.7,370.8 L546.3,369.5 L554.1,371.6 L560.1,371.5 L566.0,374.8 L571.1,379.3 L574.2,380.4 L577.6,380.6 L579.1,381.9 L580.4,387.0 L581.1,389.4 L579.5,396.0 L577.5,398.6 L571.8,404.2 L569.3,408.7 L566.3,412.2 L565.3,412.2 L564.2,415.2 L564.5,422.7 L563.4,428.8 L562.9,431.5 L561.7,433.0 L561.0,438.4 L556.9,443.6 L556.2,447.7 L553.0,449.5 L552.0,451.9 L547.7,451.9 L541.4,453.4 L538.6,455.2 L534.1,456.4 L529.4,459.5 L526.0,463.5 L525.4,466.5 L526.1,468.7 L525.4,472.7 L524.4,474.7 L521.7,476.9 L517.2,483.9 L513.7,487.1 L511.0,489.0 L509.2,492.8 L506.5,495.1 L504.8,497.6 L500.3,499.8 L497.3,499.0 L495.1,499.4 L491.4,497.7 L488.7,497.9 L486.3,495.6 L486.0,497.7 L491.1,501.2 L490.6,503.9 L493.1,505.7 L492.8,507.6 L489.0,512.7 L483.1,514.9 L475.1,515.7 L470.7,515.3 L471.5,517.7 L470.7,520.7 L471.4,522.7 L469.0,524.1 L464.9,524.7 L461.1,523.2 L459.5,524.3 L460.1,528.2 L462.8,529.4 L465.0,528.2 L466.2,530.3 L462.5,531.5 L459.3,534.0 L458.7,538.0 L457.7,540.1 L454.0,540.2 L450.8,542.2 L449.7,545.2 L453.6,548.1 L457.4,548.9 L456.1,552.5 L451.3,554.8 L448.7,559.5 L445.1,561.1 L443.4,562.9 L444.7,567.1 L447.4,569.4 L445.7,569.2 L442.2,569.2 L440.2,570.2 L436.6,571.6 L436.0,575.3 L434.3,575.4 L429.8,574.1 L425.2,571.3 L420.2,569.1 L419.0,566.5 L420.1,564.2 L418.1,561.5 L417.6,554.7 L419.3,550.8 L423.5,547.8 L417.4,546.6 L421.2,543.1 L422.6,536.4 L427.0,537.8 L429.1,529.5 L426.4,528.5 L425.2,533.5 L422.7,532.9 L423.9,527.2 L425.3,519.8 L427.1,517.0 L426.0,513.1 L425.6,508.6 L427.3,508.5 L429.8,502.0 L432.6,495.6 L434.2,489.7 L433.3,483.7 L434.5,480.4 L434.0,475.4 L436.4,470.6 L437.1,462.8 L438.4,454.5 L439.6,445.6 L439.3,439.0 L438.5,433.4 L434.5,431.1 L434.2,429.5 L426.2,425.4 L419.0,421.1 L416.0,418.6 L414.3,415.3 L415.0,414.1 L411.6,408.9 L407.6,401.5 L403.9,393.5 L402.2,391.7 L401.0,388.8 L397.9,386.2 L395.0,384.5 L396.3,382.8 L394.4,378.9 L395.6,376.1 L398.8,373.6 L400.9,370.6 L400.1,368.9 L398.5,370.7 L396.1,369.0 L396.9,367.9 L396.3,364.2 L397.7,363.6 L398.4,361.1 L399.9,358.6 L399.6,356.9 L401.8,356.1 L404.6,354.5 L404.0,353.2 L405.5,352.9 L405.4,350.9 L406.3,349.5 L408.3,349.2 L410.0,346.7 L411.5,344.6 L410.0,343.6 L410.8,341.3 L409.9,337.7 L410.7,336.6 L410.1,333.2 L408.5,331.1 L407.1,330.0 L406.3,327.8 L407.3,326.7 L406.3,326.4 L405.5,325.1 L403.5,324.0 L401.8,324.3 L401.0,325.7 L399.3,326.7 L398.5,326.8 L398.1,327.6 L400.0,329.8 L398.9,330.3 L398.3,330.9 L396.5,331.1 L395.8,328.7 L395.2,329.4 L393.9,329.2 L393.1,327.6 L391.5,327.3 L390.4,326.8 L388.7,326.8 L388.6,327.7 L388.1,327.1 L386.0,326.2 L385.2,325.4 L385.6,324.7 L385.5,323.8 L384.4,322.8 L382.8,322.1 L381.4,321.5 L381.1,320.4 L380.1,319.7 L380.4,320.8 L379.6,321.8 L378.6,320.7 L377.4,320.3 L376.8,319.5 L376.8,318.2 L377.4,317.0 L376.2,316.4 L377.1,315.6 L375.8,314.4 L373.9,312.8 L373.0,311.4 L371.3,310.2 L369.3,308.4 L369.8,307.7 L370.4,308.3 L370.7,308.1 L370.0,306.8 L368.8,306.5 L368.4,307.4 L366.1,307.3 L364.6,307.0 L363.0,306.2 L360.8,305.9 L359.6,305.1 L357.6,304.4 L355.1,304.3 L353.2,303.5 L351.1,301.8 L346.6,297.5 L344.5,296.2 L341.2,295.2 L339.0,295.5 L335.8,297.0 L333.8,297.4 L330.9,296.3 L327.9,295.6 L324.2,293.7 L321.2,293.2 L316.7,291.3 L313.3,289.4 L312.3,288.3 L310.1,288.1 L306.0,286.8 L304.3,285.0 L300.0,282.7 L298.0,280.2 L297.1,278.3 L298.4,277.9 L298.0,276.7 L298.9,275.7 L298.9,274.3 L297.6,272.5 L297.2,270.9 L295.9,268.9 L292.4,264.9 L288.3,261.8 L286.4,259.3 L283.0,257.7 L282.2,256.7 L282.8,254.2 L280.8,253.3 L278.4,251.4 L277.4,248.6 L275.3,248.2 L273.0,246.1 L271.1,244.2 L270.9,242.9 L268.8,239.9 L267.3,236.9 L267.4,235.3 L264.5,233.7 L263.2,233.9 L260.9,232.8 L260.3,234.4 L260.9,236.3 L261.3,239.3 L262.7,241.0 L265.6,243.8 L266.3,244.7 L266.9,245.0 L267.4,246.4 L268.2,246.3 L269.0,248.9 L270.2,249.9 L271.0,251.3 L273.5,253.3 L274.9,257.1 L276.0,258.8 L277.2,260.7 L277.4,262.8 L279.3,262.9 L280.9,264.8 L282.4,266.5 L282.3,267.3 L280.6,268.7 L279.9,268.7 L278.8,266.3 L276.2,264.0 L273.3,262.1 L271.3,261.0 L271.4,258.1 L270.8,256.0 L268.9,254.7 L266.1,252.9 L265.6,253.4 L264.6,252.4 L262.1,251.4 L259.8,249.1 L260.1,248.8 L261.7,249.0 L263.2,247.5 L263.4,245.7 L260.3,242.9 L257.9,241.8 L256.5,239.3 L255.0,236.7 L253.1,233.5 L251.5,229.9 L250.8,227.8 L248.2,225.5 L246.4,225.0 L245.9,223.9 L243.7,223.7 L242.2,222.6 L238.5,222.2 L237.5,221.6 L237.0,219.4 L233.1,215.4 L229.8,209.8 L230.0,208.9 L228.2,207.5 L225.1,204.2 L224.5,200.9 L222.4,198.7 L223.3,195.4 L223.1,192.0 L221.9,188.9 L223.4,185.2 L224.4,177.9 L223.7,172.5 L222.4,169.1 L221.3,167.3 L221.7,166.5 L227.5,167.8 L229.7,171.6 L230.6,170.6 L230.0,167.3 L228.6,164.0 L228.1,164.0 L220.4,160.1 L217.5,158.3 L210.3,156.7 L208.0,153.1 L208.6,150.7 L203.5,149.0 L202.8,145.8 L197.9,142.8 L197.9,140.8 L195.7,139.3 L192.1,138.0 L191.0,134.5 L185.8,131.3 L183.7,127.5 L179.8,127.2 L173.5,127.2 L168.8,126.0 L160.5,121.8 L156.7,121.1 L149.7,119.7 L144.2,120.0 L136.3,118.2 L131.5,116.5 L127.1,117.3 L127.9,120.1 L125.7,120.3 L121.1,121.2 L117.6,122.5 L113.1,123.4 L112.6,121.0 L114.4,117.1 L118.6,115.9 L117.5,114.9 L112.4,117.1 L109.7,119.8 L103.9,122.6 L106.9,124.5 L103.1,127.4 L98.8,129.1 L94.8,130.3 L93.8,132.1 L87.5,134.1 L86.3,136.0 L81.6,137.7 L78.8,137.4 L75.1,138.5 L71.0,139.9 L67.7,141.2 L60.9,142.4 L60.2,141.7 L64.6,139.8 L68.5,138.6 L72.8,136.4 L77.7,136.0 L79.7,134.3 L85.3,131.9 L86.2,131.1 L89.1,129.7 L89.8,126.7 L91.8,124.3 L87.2,125.5 L85.9,124.8 L83.8,126.3 L81.2,124.3 L80.1,125.7 L78.6,123.7 L74.6,125.3 L72.1,125.3 L71.8,122.9 L72.5,121.5 L69.9,120.0 L64.7,120.8 L61.4,118.9 L58.6,118.0 L58.6,115.7 L55.5,114.0 L57.1,111.7 L60.3,109.5 L61.8,107.4 L65.0,107.1 L67.7,107.8 L71.0,105.8 L73.9,106.2 L76.9,104.9 L76.2,103.1 L73.9,102.4 L76.9,100.8 L74.4,100.9 L70.2,101.8 L69.0,102.6 L65.8,101.8 L60.2,102.2 L54.3,101.3 L52.6,99.6 L47.6,97.3 L53.2,95.6 L62.1,93.7 L65.4,93.7 L64.8,95.7 L73.3,95.5 L70.0,93.1 L65.1,91.5 L62.3,89.5 L58.4,87.8 L52.9,86.6 L55.2,84.5 L62.3,84.3 L67.3,82.5 L68.3,80.6 L72.4,78.7 L76.3,78.2 L83.8,76.4 L87.5,76.7 L93.7,74.6 L99.7,75.4 L102.6,77.2 L104.4,76.4 L111.2,76.7 L110.9,77.6 L117.0,78.3 L121.1,77.9 L129.5,79.1 L137.2,79.5 L140.3,80.0 L145.6,79.4 L151.7,80.6 L156.1,81.2 L163.5,82.1 L169.8,84.0 L174.0,84.4 L177.5,82.7 L182.3,81.5 L188.3,82.0 L194.3,80.2 L200.8,79.2 L203.6,80.9 L206.6,79.9 L207.4,78.1 L210.2,78.5 L217.0,82.1 L222.3,79.4 L222.8,82.4 L227.8,81.7 L229.3,80.6 L234.1,80.8 L240.2,82.5 L249.6,84.0 L255.1,84.6 L259.0,84.4 L264.4,86.4 L258.8,88.4 L266.0,89.2 L276.8,88.8 L280.2,88.1 L284.5,90.5 L288.8,88.4 L284.7,86.8 L287.3,85.4 L292.2,85.2 L295.4,84.8 L298.6,85.8 L302.6,87.9 L307.1,87.6 L314.2,89.4 L320.4,88.8 L326.2,88.9 L325.8,86.4 L329.3,85.7 L335.5,87.0 L335.5,90.8 L338.0,87.6 L341.3,87.7 L343.1,83.7 L338.8,81.3 L334.1,79.6 L334.4,75.2 L339.2,72.3 L344.4,73.0 L348.5,74.7 L353.9,79.2 L350.4,81.2 L357.8,82.0Z" fill="#b9d99e"/><path d="M263.3,67.5 L261.3,69.4 L270.2,68.2 L275.8,70.2 L280.3,68.2 L284.0,69.5 L287.2,73.4 L289.3,71.7 L286.4,67.6 L289.9,67.1 L293.9,67.7 L298.4,69.3 L300.9,73.2 L302.1,76.0 L308.9,78.0 L316.1,79.9 L315.6,81.7 L309.1,82.0 L311.6,83.5 L310.3,85.0 L303.0,84.4 L296.2,83.3 L291.5,83.5 L284.0,84.9 L272.1,85.6 L266.7,85.9 L264.6,84.0 L259.1,82.9 L255.6,83.3 L250.6,80.2 L253.3,79.7 L259.5,79.1 L265.1,79.2 L270.3,78.5 L262.6,77.6 L254.1,77.9 L248.4,77.8 L246.3,76.4 L255.5,74.8 L249.4,74.8 L242.4,73.8 L245.7,70.8 L248.5,69.2 L259.2,66.7 L263.3,67.5Z" fill="#b9d99e"/><path d="M302.0,66.3 L298.5,69.0 L292.2,66.2 L293.6,65.6 L299.0,65.4 L302.0,66.3Z" fill="#b9d99e"/><path d="M414.6,67.6 L415.0,68.7 L410.7,68.6 L406.4,68.5 L402.1,69.0 L400.9,68.8 L396.5,66.7 L396.7,65.2 L398.6,65.0 L407.7,65.4 L414.6,67.6Z" fill="#b9d99e"/><path d="M373.8,67.4 L376.9,69.9 L380.6,66.6 L390.7,65.0 L397.6,69.1 L397.0,71.8 L404.9,70.6 L408.7,69.0 L417.6,71.0 L423.1,72.9 L423.6,74.7 L431.0,73.8 L435.2,76.3 L444.9,77.9 L448.3,79.5 L452.1,83.3 L444.8,85.1 L454.2,87.7 L460.6,88.6 L466.3,92.3 L472.6,92.6 L471.3,95.4 L464.3,100.0 L459.4,98.3 L453.1,94.4 L447.9,94.9 L447.4,97.2 L451.6,99.6 L457.1,101.4 L458.7,102.5 L461.3,106.4 L459.9,109.3 L454.9,108.2 L444.9,105.0 L450.5,108.5 L454.7,110.9 L455.3,112.3 L444.5,110.7 L435.9,108.4 L431.1,106.4 L432.5,105.3 L426.5,103.2 L420.7,101.3 L420.7,102.4 L409.2,103.1 L405.8,101.7 L408.4,98.8 L415.9,98.7 L424.2,98.2 L422.8,96.8 L424.2,94.8 L429.4,90.9 L428.3,89.1 L426.8,87.7 L420.6,85.8 L412.5,84.4 L415.1,83.4 L410.9,80.9 L407.3,80.7 L404.2,79.3 L402.0,80.5 L394.8,81.0 L380.2,80.1 L371.8,79.0 L365.3,78.4 L361.9,77.0 L366.1,75.1 L360.4,75.1 L359.2,71.1 L362.3,67.5 L366.4,65.8 L376.7,64.8 L373.8,67.4Z" fill="#b9d99e"/><path d="M318.6,64.6 L323.3,65.5 L330.5,65.0 L331.5,66.1 L327.8,68.0 L333.8,69.8 L333.1,73.4 L326.6,74.9 L322.7,74.6 L319.9,73.0 L310.0,70.0 L310.1,68.7 L318.2,69.2 L313.8,66.6 L318.6,64.6Z" fill="#b9d99e"/><path d="M1294.4,67.2 L1288.4,67.2 L1280.2,66.7 L1279.5,66.5 L1283.2,64.9 L1288.2,64.6 L1293.9,66.1 L1294.4,67.2Z" fill="#b9d99e"/><path d="M347.2,68.9 L342.9,71.9 L338.4,71.8 L335.9,68.2 L335.9,66.3 L338.0,64.6 L342.0,63.5 L350.3,63.6 L358.0,64.6 L352.0,68.1 L347.2,68.9Z" fill="#b9d99e"/><path d="M238.2,74.4 L227.6,76.4 L225.5,74.6 L216.3,72.5 L217.6,71.2 L220.8,67.9 L224.2,65.3 L220.3,62.8 L233.8,62.2 L239.6,63.0 L249.8,63.3 L253.7,64.4 L258.0,66.1 L252.9,67.1 L243.1,69.9 L238.2,72.7 L238.2,74.4Z" fill="#b9d99e"/><path d="M1322.9,59.7 L1318.3,61.2 L1311.9,60.9 L1304.5,59.3 L1305.4,58.0 L1312.9,58.6 L1322.9,59.7Z" fill="#b9d99e"/><path d="M345.5,60.1 L343.4,61.6 L337.6,61.3 L332.7,60.3 L334.8,58.5 L340.6,57.4 L344.1,58.8 L345.5,60.1Z" fill="#b9d99e"/><path d="M1300.3,57.7 L1297.2,60.7 L1282.5,60.6 L1275.8,61.6 L1267.9,59.0 L1270.0,56.2 L1275.3,55.5 L1285.9,55.6 L1300.3,57.7Z" fill="#b9d99e"/><path d="M326.0,53.1 L329.1,55.0 L329.2,57.0 L327.4,60.0 L320.8,60.4 L316.5,59.8 L316.5,57.4 L310.0,57.7 L309.7,54.7 L314.0,54.8 L320.1,53.4 L325.7,53.6 L326.0,53.1Z" fill="#b9d99e"/><path d="M287.2,55.2 L288.7,56.6 L292.3,55.9 L296.5,56.1 L297.2,58.1 L294.7,60.0 L281.2,60.6 L271.1,62.3 L265.0,62.4 L264.5,61.1 L272.8,59.4 L254.8,59.8 L249.2,59.1 L254.6,55.2 L258.4,54.1 L269.6,55.4 L276.7,57.8 L283.7,58.1 L278.0,54.3 L281.7,52.8 L285.8,53.3 L287.2,55.2Z" fill="#b9d99e"/><path d="M950.1,77.1 L947.8,77.5 L934.7,76.9 L933.6,75.2 L926.4,74.1 L925.8,71.9 L929.9,71.1 L929.8,68.9 L937.7,65.5 L934.0,65.0 L943.6,61.5 L942.5,59.7 L951.5,57.6 L964.7,55.0 L978.0,54.2 L984.8,52.8 L992.6,52.2 L995.4,53.8 L992.7,55.1 L978.5,57.0 L966.3,59.0 L953.9,62.8 L947.9,66.7 L941.7,70.5 L942.5,73.8 L950.1,77.1Z" fill="#b9d99e"/><path d="M341.3,51.6 L345.7,52.9 L353.6,52.9 L357.0,54.2 L356.1,55.7 L360.7,56.6 L363.3,57.6 L368.6,57.7 L374.5,58.1 L380.8,57.2 L389.0,56.9 L395.5,57.1 L399.8,58.7 L400.7,60.3 L398.2,61.4 L392.2,62.2 L387.1,61.7 L375.6,62.4 L367.4,62.4 L360.9,61.9 L350.3,60.6 L348.9,58.5 L348.4,56.5 L344.4,54.7 L336.2,54.2 L331.5,53.0 L333.0,51.4 L341.3,51.6Z" fill="#b9d99e"/><path d="M255.2,49.4 L254.7,52.5 L251.6,53.9 L247.8,54.1 L240.4,55.8 L234.0,56.4 L228.6,55.5 L228.6,55.5 L235.4,52.5 L243.6,50.0 L249.7,50.0 L255.2,49.4Z" fill="#b9d99e"/><path d="M1147.9,52.1 L1149.0,54.1 L1152.6,53.1 L1164.3,53.2 L1173.3,55.1 L1176.5,56.6 L1175.5,58.7 L1171.1,59.9 L1160.6,62.1 L1157.6,63.3 L1162.6,63.8 L1168.5,64.8 L1172.1,64.1 L1174.1,66.7 L1175.9,65.6 L1182.3,65.0 L1195.1,65.6 L1196.1,67.5 L1212.8,68.1 L1213.0,65.1 L1221.5,65.8 L1227.9,65.7 L1234.4,67.8 L1236.2,70.4 L1233.8,72.1 L1238.9,75.2 L1245.2,76.9 L1249.0,72.7 L1255.4,74.5 L1262.2,73.4 L1270.0,74.6 L1272.9,73.5 L1279.5,74.0 L1276.6,70.3 L1281.9,68.6 L1318.0,71.2 L1321.4,73.6 L1331.9,76.6 L1348.0,75.9 L1356.0,76.5 L1359.3,78.2 L1358.8,81.1 L1363.8,82.3 L1369.1,81.4 L1376.2,81.3 L1383.8,82.1 L1391.3,81.7 L1398.3,85.2 L1403.3,83.9 L1400.0,81.4 L1401.8,79.6 L1414.6,80.7 L1422.9,80.5 L1434.4,82.4 L1440.0,84.1 L1440.0,100.1 L1440.0,100.1 L1434.8,101.9 L1429.6,101.6 L1433.3,103.7 L1435.6,107.0 L1437.5,108.1 L1437.9,109.7 L1436.9,110.8 L1429.5,109.9 L1418.3,112.9 L1414.7,113.4 L1408.6,116.2 L1402.8,118.7 L1401.3,120.5 L1395.6,117.7 L1385.2,120.8 L1383.4,119.4 L1379.5,121.1 L1374.2,120.5 L1372.9,123.2 L1368.1,127.0 L1368.2,128.6 L1372.8,129.5 L1372.2,135.4 L1368.5,135.5 L1366.8,138.9 L1368.5,140.6 L1361.5,142.6 L1360.1,147.2 L1354.1,148.2 L1352.9,152.2 L1347.2,156.0 L1345.7,153.2 L1344.0,147.4 L1341.7,138.5 L1343.7,132.9 L1347.0,130.5 L1347.2,128.7 L1353.5,127.8 L1360.6,122.7 L1367.5,118.6 L1374.7,115.4 L1377.9,109.8 L1373.0,110.1 L1370.6,113.4 L1360.5,117.8 L1357.2,112.9 L1346.9,114.3 L1336.9,121.0 L1340.2,123.4 L1331.2,124.5 L1325.1,124.9 L1325.4,122.0 L1319.1,121.4 L1314.2,123.3 L1301.9,122.7 L1288.8,123.8 L1275.8,131.6 L1260.5,141.1 L1266.8,141.6 L1268.8,144.1 L1272.7,145.0 L1275.2,143.0 L1279.6,143.2 L1285.4,147.6 L1285.5,151.0 L1282.4,155.0 L1282.1,159.8 L1280.2,166.2 L1274.2,172.0 L1272.9,174.8 L1267.4,179.4 L1262.1,184.0 L1259.5,186.4 L1254.1,188.8 L1251.6,188.8 L1249.1,186.9 L1243.7,189.8 L1243.1,191.1 L1241.6,190.9 L1239.9,192.2 L1238.7,193.6 L1238.8,196.5 L1236.8,197.4 L1236.0,198.1 L1234.5,199.2 L1231.9,199.9 L1230.1,201.0 L1230.0,202.7 L1229.5,203.1 L1231.1,203.8 L1233.4,205.6 L1236.9,210.3 L1237.8,212.9 L1237.9,217.5 L1236.4,219.7 L1232.7,220.4 L1229.5,222.1 L1225.9,222.4 L1225.5,220.3 L1226.2,217.3 L1224.5,213.1 L1227.4,212.4 L1224.7,209.0 L1222.8,208.2 L1222.3,209.0 L1221.1,209.3 L1221.0,208.6 L1219.9,208.2 L1218.8,207.6 L1219.9,205.8 L1220.9,205.3 L1220.5,204.6 L1221.5,202.4 L1221.3,201.8 L1218.9,201.4 L1217.1,200.3 L1211.5,201.4 L1208.5,203.3 L1204.2,204.4 L1206.3,202.6 L1205.5,201.0 L1208.7,198.3 L1206.6,196.2 L1203.1,197.6 L1198.6,200.4 L1196.1,203.0 L1192.2,203.2 L1190.1,205.0 L1192.2,207.8 L1195.5,208.4 L1195.6,210.2 L1198.8,211.4 L1203.3,208.5 L1206.8,210.1 L1209.4,210.2 L1210.1,212.3 L1204.4,213.4 L1202.5,215.6 L1198.7,217.6 L1196.6,220.4 L1200.9,222.6 L1202.5,226.5 L1204.9,230.2 L1207.6,233.2 L1207.6,236.2 L1205.1,237.3 L1206.0,239.4 L1208.4,240.7 L1207.8,243.9 L1206.7,247.1 L1204.5,247.5 L1201.6,251.8 L1198.3,257.0 L1194.6,261.8 L1189.1,265.5 L1183.6,268.9 L1179.1,269.3 L1176.6,271.1 L1175.2,269.8 L1173.0,271.8 L1167.4,273.8 L1163.1,274.4 L1161.8,278.6 L1159.6,278.9 L1158.5,276.0 L1159.5,274.4 L1154.1,273.1 L1152.2,273.8 L1146.9,277.2 L1143.5,281.0 L1142.6,283.8 L1145.7,288.0 L1149.4,293.2 L1153.1,295.7 L1155.5,298.9 L1157.3,306.3 L1156.8,313.3 L1153.5,316.0 L1148.9,318.5 L1145.6,321.9 L1140.6,325.6 L1139.2,323.0 L1140.3,320.3 L1137.3,318.1 L1134.0,317.5 L1132.4,315.4 L1130.3,311.3 L1126.7,309.4 L1123.3,309.5 L1123.9,306.3 L1120.4,306.4 L1120.1,310.8 L1117.9,316.6 L1116.6,320.1 L1116.9,323.0 L1119.5,323.2 L1121.1,326.8 L1121.8,330.3 L1124.1,332.6 L1126.5,333.0 L1128.6,335.1 L1129.5,335.5 L1131.8,337.9 L1133.5,340.6 L1133.8,343.3 L1133.3,345.1 L1133.7,346.5 L1134.0,348.8 L1135.4,349.9 L1137.0,353.5 L1136.9,354.8 L1134.1,355.1 L1130.3,352.1 L1125.6,349.0 L1125.1,346.9 L1122.8,344.2 L1122.2,340.9 L1120.8,338.8 L1121.2,335.8 L1120.3,334.1 L1118.8,332.6 L1118.1,330.6 L1116.0,328.4 L1114.0,326.5 L1113.4,328.8 L1112.6,326.6 L1113.0,324.1 L1114.2,320.3 L1113.8,317.3 L1115.1,314.2 L1113.7,311.9 L1114.0,307.5 L1112.4,305.4 L1111.1,300.7 L1110.4,295.6 L1108.7,292.3 L1106.0,294.3 L1101.5,297.1 L1099.2,296.8 L1096.8,295.8 L1098.1,290.9 L1097.3,287.1 L1094.2,282.5 L1094.7,281.1 L1092.3,280.6 L1089.5,277.3 L1088.3,275.2 L1088.1,273.2 L1087.3,271.3 L1085.7,268.9 L1082.0,268.8 L1082.3,270.4 L1081.1,272.7 L1079.4,271.8 L1078.8,272.6 L1077.7,272.1 L1076.1,271.8 L1075.6,273.2 L1072.8,273.2 L1067.9,274.0 L1068.1,277.0 L1066.0,279.4 L1060.2,282.1 L1055.8,286.8 L1052.8,289.3 L1048.8,291.9 L1048.8,293.8 L1046.8,294.8 L1043.2,296.2 L1041.3,296.4 L1040.1,299.5 L1040.9,304.7 L1041.1,308.0 L1039.4,311.8 L1039.4,318.6 L1037.4,318.8 L1035.5,321.8 L1036.8,323.1 L1033.1,324.3 L1031.8,327.0 L1030.2,328.1 L1026.4,324.4 L1024.5,318.8 L1023.0,314.8 L1021.6,312.9 L1019.5,309.0 L1018.5,304.0 L1017.8,301.5 L1014.1,296.0 L1012.5,288.3 L1011.3,283.2 L1011.3,278.3 L1010.5,274.6 L1004.7,277.0 L1001.9,276.5 L996.7,271.6 L998.6,270.2 L997.4,268.6 L992.7,265.2 L989.8,264.2 L988.6,261.3 L985.5,258.3 L978.1,259.1 L971.6,259.1 L966.0,259.7 L958.5,258.5 L954.1,257.6 L949.6,257.0 L947.9,252.1 L946.0,251.4 L942.9,252.1 L938.9,254.1 L934.0,252.8 L929.9,249.7 L926.1,248.5 L923.4,244.7 L920.5,239.4 L918.3,240.1 L915.8,238.7 L914.3,240.3 L911.9,240.1 L912.7,241.9 L912.4,242.8 L913.7,245.8 L915.2,249.2 L917.2,250.2 L917.9,251.6 L920.6,253.2 L920.9,254.9 L920.5,256.2 L921.0,257.6 L922.1,258.7 L922.6,260.0 L923.2,261.0 L923.0,258.1 L924.1,256.0 L925.1,255.5 L926.4,256.8 L926.4,259.1 L925.6,261.5 L926.3,263.0 L927.0,262.8 L927.2,263.9 L930.3,263.3 L933.6,263.4 L936.0,263.5 L938.8,260.8 L941.8,258.2 L944.3,255.8 L945.4,254.4 L945.9,254.8 L945.6,256.4 L945.0,257.1 L945.6,260.3 L947.4,263.0 L949.6,264.5 L952.5,265.0 L954.9,265.7 L956.7,268.0 L957.8,269.4 L959.2,269.9 L959.2,270.8 L957.8,273.1 L957.1,274.3 L955.4,275.5 L954.0,278.3 L952.1,278.1 L951.3,279.0 L950.7,281.1 L951.2,283.7 L950.8,284.2 L948.9,284.2 L946.4,285.7 L946.0,287.7 L945.1,288.5 L942.6,288.5 L941.1,289.5 L941.1,291.1 L939.2,292.2 L937.0,291.8 L934.3,293.2 L932.4,293.4 L929.5,294.5 L928.8,296.2 L928.7,297.6 L924.7,299.3 L918.3,301.2 L914.7,304.0 L913.0,304.2 L911.8,304.0 L909.4,305.6 L906.9,306.4 L903.5,306.6 L902.5,306.8 L901.6,307.9 L900.6,308.2 L900.0,309.2 L898.0,309.1 L896.7,309.7 L893.9,309.5 L892.9,307.1 L893.0,304.9 L892.4,303.7 L891.6,300.8 L890.4,299.1 L891.2,299.0 L890.8,297.1 L891.3,296.4 L891.1,294.6 L890.6,292.9 L889.4,291.7 L889.1,290.1 L887.0,288.7 L884.9,285.3 L883.8,282.1 L881.0,279.3 L879.2,278.6 L876.6,274.8 L876.1,272.1 L876.3,269.7 L874.0,265.2 L872.1,263.7 L869.9,262.9 L868.6,260.6 L868.8,259.7 L867.7,257.6 L866.6,256.7 L865.0,253.7 L862.6,250.5 L860.5,247.7 L858.5,247.8 L859.2,245.6 L859.3,244.2 L859.8,242.6 L859.7,242.0 L858.6,243.6 L857.7,246.6 L856.6,248.7 L855.7,249.4 L854.4,248.1 L852.5,246.3 L849.7,240.6 L849.3,241.0 L850.9,245.2 L853.4,249.2 L856.4,255.4 L857.9,257.6 L859.2,259.9 L862.8,264.3 L862.0,265.0 L862.1,267.6 L866.8,271.2 L867.5,272.0 L868.8,275.9 L867.9,276.6 L868.5,280.8 L869.9,285.5 L871.5,286.5 L873.6,288.0 L876.0,292.6 L877.1,296.3 L879.3,298.3 L884.7,302.0 L886.9,304.3 L889.1,306.6 L890.4,308.0 L892.3,309.2 L893.3,310.4 L893.1,312.1 L890.9,313.1 L892.6,314.2 L893.9,314.9 L894.7,316.5 L896.5,318.2 L898.5,318.2 L902.2,317.2 L906.6,316.7 L910.1,315.5 L912.1,315.2 L913.5,314.5 L915.8,314.4 L917.1,314.3 L918.9,313.7 L921.0,313.3 L922.9,311.9 L924.4,311.9 L924.5,313.0 L924.2,315.3 L924.2,317.4 L923.3,318.9 L922.2,323.2 L920.3,327.7 L917.8,332.8 L914.4,338.6 L911.0,343.1 L906.3,348.6 L902.3,351.8 L896.3,355.8 L892.5,358.8 L888.2,363.7 L887.2,365.8 L886.3,366.7 L883.5,368.3 L882.6,370.0 L881.1,370.3 L880.5,373.1 L879.2,374.7 L878.4,377.4 L876.8,378.7 L875.0,383.6 L875.2,385.9 L877.8,387.4 L877.9,388.4 L876.8,390.8 L877.0,392.0 L876.7,393.9 L878.1,396.4 L879.8,400.4 L881.3,401.3 L881.9,403.1 L881.7,407.0 L882.2,410.6 L882.4,416.8 L883.1,418.8 L881.9,421.6 L880.4,424.4 L877.8,426.9 L874.2,428.4 L869.6,430.3 L865.1,434.6 L863.6,435.4 L860.8,438.2 L859.1,439.1 L858.8,442.0 L860.7,445.0 L861.5,447.4 L861.5,448.6 L862.3,448.4 L862.1,452.3 L861.5,454.1 L862.4,454.8 L861.8,456.5 L860.2,457.9 L856.9,459.3 L852.1,461.4 L850.3,462.9 L850.6,464.6 L851.7,464.9 L851.3,467.0 L850.3,469.9 L849.8,473.2 L848.8,475.0 L846.1,477.0 L845.3,477.6 L843.6,479.6 L842.5,481.7 L840.2,484.6 L835.7,488.7 L832.9,491.1 L829.9,492.9 L825.7,494.5 L823.6,494.7 L823.1,495.8 L820.7,495.2 L818.7,495.9 L814.4,495.2 L812.0,495.7 L810.3,495.5 L806.2,497.0 L802.8,497.7 L800.3,499.2 L798.5,499.3 L796.8,497.9 L795.4,497.8 L793.7,496.0 L793.5,496.5 L793.0,495.5 L793.0,493.1 L791.7,490.4 L793.0,489.7 L792.9,486.6 L790.3,482.9 L788.3,479.5 L788.3,479.5 L785.4,474.3 L782.4,471.3 L780.8,468.4 L780.0,464.5 L779.0,461.6 L777.6,455.4 L777.5,450.6 L777.0,448.4 L775.5,446.8 L773.4,443.5 L771.3,438.7 L770.4,436.2 L767.2,432.3 L766.9,429.2 L766.6,426.7 L767.1,423.2 L768.5,419.5 L768.7,417.8 L770.0,414.2 L771.0,412.6 L773.3,409.9 L774.5,408.2 L775.0,405.2 L774.7,402.9 L773.5,401.5 L772.5,399.1 L771.5,396.7 L771.7,395.8 L772.9,394.3 L771.7,390.4 L770.9,387.7 L768.9,385.2 L769.3,384.4 L768.7,383.2 L767.7,380.2 L764.4,375.9 L760.3,371.9 L757.6,368.6 L755.2,364.4 L755.3,363.1 L756.2,361.8 L757.2,358.9 L758.0,356.0 L757.2,355.4 L758.6,350.9 L759.2,347.7 L757.6,345.1 L755.8,344.4 L755.0,342.6 L754.0,342.0 L754.0,340.9 L749.8,342.4 L748.3,342.1 L746.8,343.0 L743.6,342.9 L741.5,340.4 L740.1,337.6 L737.3,334.9 L734.3,335.0 L730.8,335.0 L727.5,335.4 L724.2,336.3 L718.0,338.6 L715.7,340.0 L712.1,341.2 L708.6,340.0 L706.8,340.1 L704.0,339.3 L701.4,339.3 L696.7,340.0 L693.9,341.2 L689.9,342.6 L689.2,342.5 L688.1,342.6 L684.0,340.7 L680.3,337.6 L676.9,335.4 L674.2,332.9 L673.2,332.6 L670.3,330.9 L668.2,328.8 L667.5,327.3 L667.0,324.4 L665.3,322.0 L663.7,320.5 L662.7,319.9 L661.7,319.1 L661.2,317.4 L660.6,316.5 L659.5,315.8 L657.3,314.2 L655.7,313.9 L654.7,312.8 L654.8,312.2 L653.5,311.3 L653.3,310.5 L652.6,307.4 L653.1,305.6 L651.5,302.5 L649.5,301.1 L651.3,300.3 L653.2,297.5 L654.1,295.5 L653.8,293.3 L654.9,291.3 L655.4,287.6 L655.0,283.6 L654.5,281.6 L654.9,279.6 L653.9,277.7 L651.7,276.0 L651.9,274.3 L652.1,272.5 L653.6,271.4 L655.0,269.3 L654.7,267.9 L656.1,265.1 L658.3,262.6 L659.6,261.9 L660.7,259.6 L660.8,257.5 L662.2,255.0 L664.9,253.5 L667.4,249.4 L669.5,247.8 L673.2,247.4 L676.4,244.7 L678.4,243.6 L681.7,240.3 L680.7,235.3 L682.3,231.8 L682.8,229.7 L685.4,227.0 L689.4,225.2 L692.4,223.6 L695.0,219.4 L696.3,217.0 L699.2,217.0 L701.6,218.7 L705.4,218.4 L709.6,219.3 L711.3,219.3 L715.2,217.1 L719.5,216.4 L722.0,214.8 L725.9,213.6 L732.6,212.9 L739.3,212.5 L741.3,213.1 L745.0,211.6 L749.3,211.5 L750.9,212.5 L753.7,212.2 L758.0,210.6 L760.8,211.1 L760.7,213.1 L764.1,211.6 L764.4,212.4 L762.4,214.4 L762.4,216.2 L763.8,217.2 L763.2,220.7 L760.6,222.7 L761.4,224.9 L763.4,224.9 L764.4,226.8 L766.0,227.5 L770.7,228.8 L772.3,228.5 L775.7,229.2 L781.0,230.9 L782.9,234.5 L786.4,235.3 L792.1,236.9 L796.3,238.9 L798.3,237.9 L800.2,236.1 L799.3,233.0 L800.5,231.0 L803.4,229.2 L806.2,228.6 L811.6,229.4 L812.9,231.2 L814.4,231.3 L815.7,231.9 L819.7,232.4 L820.7,233.7 L826.0,233.7 L829.8,234.7 L833.8,235.9 L835.7,236.5 L838.7,235.3 L840.4,234.1 L843.9,233.8 L846.8,234.3 L847.8,236.3 L848.8,235.0 L852.0,235.9 L855.1,236.1 L857.1,235.1 L858.2,233.8 L858.0,233.6 L859.0,231.7 L859.8,228.7 L860.4,227.7 L860.5,227.6 L861.9,224.4 L863.9,221.6 L864.0,221.4 L863.6,218.4 L864.6,216.7 L863.1,214.9 L864.6,213.4 L862.2,213.7 L858.9,212.8 L856.1,215.1 L850.0,215.6 L846.8,213.4 L842.5,213.3 L841.6,214.9 L838.8,215.4 L834.9,213.3 L830.6,213.4 L828.2,209.4 L825.3,207.2 L827.2,204.1 L824.7,202.1 L829.1,198.3 L835.3,198.2 L837.0,195.1 L844.6,195.6 L849.4,193.1 L854.1,191.9 L860.7,191.8 L867.7,194.7 L873.4,196.2 L878.1,195.6 L881.5,195.9 L886.2,193.9 L886.8,192.1 L885.8,189.4 L883.5,187.9 L881.3,187.5 L879.8,186.3 L874.7,182.9 L870.2,181.4 L866.7,179.0 L869.6,178.4 L872.9,175.0 L870.7,173.5 L876.6,171.8 L876.5,170.9 L872.9,171.6 L869.7,171.9 L867.0,173.2 L863.3,173.4 L859.8,174.9 L860.1,177.4 L862.0,178.4 L866.1,178.1 L865.3,179.5 L861.0,180.2 L855.5,182.6 L853.3,181.7 L854.2,179.9 L849.8,178.7 L850.5,177.9 L854.4,176.6 L853.2,175.7 L847.0,174.7 L846.7,173.2 L843.0,173.7 L841.5,175.9 L838.4,178.8 L838.5,179.9 L836.6,180.7 L835.4,180.3 L834.2,185.2 L832.2,186.8 L830.7,189.7 L832.0,192.0 L832.5,193.5 L836.0,194.8 L835.2,195.8 L830.5,196.0 L828.8,197.2 L825.4,199.4 L824.2,197.5 L824.2,196.7 L821.8,196.6 L819.7,196.2 L814.9,197.3 L817.6,199.5 L815.6,200.2 L813.4,200.2 L811.3,198.1 L810.5,199.0 L811.4,201.4 L813.4,203.2 L811.9,204.1 L814.1,206.0 L816.1,207.1 L816.2,209.4 L812.5,208.3 L813.6,210.4 L811.1,210.8 L812.6,214.3 L810.0,214.4 L806.7,212.6 L805.2,209.4 L804.5,206.8 L802.9,204.9 L800.9,202.6 L800.6,201.5 L799.9,201.2 L799.8,200.3 L797.6,199.0 L797.3,197.1 L797.6,194.4 L798.2,193.1 L797.5,192.5 L796.6,192.2 L795.5,190.9 L793.8,190.1 L790.0,188.6 L787.7,187.2 L784.1,186.0 L780.7,183.0 L781.5,182.7 L779.7,181.0 L779.6,179.7 L777.0,179.1 L775.8,180.8 L774.6,179.5 L774.7,178.1 L774.9,178.0 L775.8,177.6 L772.6,177.1 L769.3,178.5 L769.5,180.5 L769.0,181.6 L770.4,183.6 L774.1,185.6 L776.1,189.0 L780.6,192.2 L783.7,192.2 L784.7,193.0 L783.6,193.8 L787.1,195.3 L790.1,196.5 L793.5,198.6 L793.9,199.3 L793.2,200.8 L791.0,198.9 L787.5,198.2 L785.8,200.8 L788.7,202.3 L788.2,204.4 L786.5,204.6 L784.4,208.1 L782.7,208.4 L782.8,207.1 L783.6,205.0 L784.4,204.1 L782.9,201.8 L781.7,199.8 L780.0,199.3 L778.8,197.6 L776.2,196.9 L774.5,195.2 L771.6,195.0 L768.4,193.2 L764.8,190.6 L762.0,188.3 L760.8,184.3 L758.8,183.9 L755.6,182.5 L753.7,183.1 L751.4,184.9 L749.7,185.2 L746.1,187.5 L738.2,186.4 L732.4,187.7 L731.9,190.1 L732.2,192.4 L728.4,195.1 L723.2,195.9 L722.9,197.3 L720.4,199.5 L718.9,202.8 L720.4,205.0 L718.1,206.8 L717.3,209.4 L714.2,210.2 L711.4,213.3 L706.3,213.4 L702.5,213.3 L700.0,214.7 L698.5,216.2 L696.5,215.9 L695.1,214.5 L693.9,212.2 L690.2,211.6 L688.6,212.6 L686.5,212.1 L684.4,212.5 L685.0,209.4 L684.6,206.9 L682.9,206.6 L681.9,205.1 L682.2,202.4 L683.8,201.0 L684.1,199.4 L684.9,197.0 L684.8,195.3 L684.0,193.8 L683.9,192.5 L684.1,189.6 L682.4,187.9 L688.1,185.0 L693.0,185.7 L698.4,185.7 L702.6,186.4 L705.9,186.2 L712.4,186.3 L714.5,183.9 L715.2,175.9 L711.1,171.7 L708.1,169.7 L702.0,168.2 L701.6,165.3 L706.8,164.4 L713.5,165.4 L712.3,160.9 L716.0,162.6 L725.4,159.5 L726.6,156.2 L730.1,155.4 L733.3,154.6 L735.3,153.5 L738.8,147.6 L744.3,146.0 L747.6,146.1 L748.4,145.2 L751.7,145.0 L752.5,145.9 L755.2,143.9 L754.3,142.4 L754.1,140.1 L752.5,137.9 L752.4,133.8 L753.0,132.8 L754.2,131.6 L757.7,131.3 L759.1,130.2 L762.3,129.1 L762.2,131.1 L761.0,132.4 L761.5,133.6 L763.6,134.2 L762.7,135.7 L761.5,135.2 L758.6,138.1 L759.7,140.1 L759.8,141.6 L763.8,142.5 L763.8,144.0 L767.8,143.2 L770.1,142.1 L774.6,143.7 L776.5,145.0 L779.2,143.8 L785.5,141.9 L790.5,140.6 L794.5,141.3 L794.8,142.2 L798.6,142.3 L799.6,140.5 L805.1,139.2 L804.2,135.9 L804.4,132.9 L806.3,130.4 L810.1,129.0 L813.3,132.0 L816.5,131.9 L817.3,128.8 L817.7,126.5 L816.2,127.0 L813.7,125.5 L813.4,123.3 L818.4,122.1 L823.5,121.6 L827.8,122.2 L831.9,122.1 L836.5,119.9 L832.3,118.0 L825.0,118.3 L818.0,119.8 L811.5,120.6 L809.2,118.4 L805.3,117.1 L806.2,113.2 L804.2,109.6 L806.1,107.2 L809.8,104.7 L818.9,100.4 L821.6,99.6 L821.2,97.9 L815.6,96.0 L808.7,97.1 L804.9,99.9 L805.5,102.3 L799.1,105.6 L791.4,109.0 L788.5,114.6 L791.3,117.5 L795.2,119.7 L791.5,124.2 L787.3,125.1 L785.8,131.8 L783.5,135.6 L778.7,135.2 L776.4,138.4 L771.8,138.6 L770.5,134.8 L767.2,130.2 L764.1,124.6 L761.4,122.1 L753.5,126.7 L748.2,127.7 L742.7,125.6 L741.2,121.3 L740.0,112.1 L743.7,109.5 L754.2,106.2 L762.1,102.1 L769.4,96.5 L779.0,88.8 L785.7,85.7 L796.7,80.7 L805.5,79.0 L812.1,79.2 L818.2,75.9 L825.5,76.1 L832.7,75.3 L845.2,78.2 L840.0,79.3 L844.4,81.8 L848.5,80.4 L855.1,82.8 L866.1,83.7 L881.2,88.3 L884.2,90.2 L884.5,92.8 L880.1,94.9 L873.5,96.0 L855.7,93.0 L852.7,93.5 L859.3,96.4 L859.8,102.3 L864.9,103.6 L868.1,104.6 L868.6,102.7 L866.1,100.9 L868.7,99.4 L878.4,101.9 L881.7,100.9 L879.1,98.0 L888.4,94.1 L892.1,94.3 L895.8,95.7 L898.1,93.0 L894.8,90.6 L896.8,88.2 L893.8,85.7 L905.0,87.0 L907.3,89.2 L902.2,89.7 L902.2,92.0 L905.4,93.3 L911.6,92.5 L912.6,89.9 L920.9,88.0 L934.9,84.6 L937.9,84.8 L933.9,87.2 L938.9,87.6 L941.8,86.2 L949.3,86.1 L955.2,84.5 L959.8,86.9 L964.3,84.2 L960.1,81.9 L962.2,80.6 L974.0,81.8 L979.6,83.1 L994.0,87.6 L996.7,85.5 L992.7,83.4 L992.5,82.6 L987.7,82.2 L989.0,80.3 L986.9,77.2 L986.8,75.9 L994.2,72.3 L996.8,68.6 L999.8,67.8 L1010.4,68.9 L1011.2,71.1 L1007.4,74.4 L1009.9,75.6 L1011.2,78.4 L1010.3,83.9 L1014.7,86.4 L1013.0,89.0 L1005.1,94.7 L1009.7,95.3 L1011.3,93.9 L1015.7,92.8 L1016.7,90.9 L1020.2,89.0 L1017.9,86.7 L1019.7,84.0 L1015.4,83.7 L1014.4,81.5 L1017.6,77.5 L1012.4,74.2 L1019.6,71.5 L1018.6,68.7 L1020.6,68.6 L1022.7,70.8 L1021.2,74.7 L1025.4,75.4 L1023.6,72.5 L1030.3,70.9 L1038.6,70.7 L1046.0,73.0 L1042.4,69.7 L1042.0,65.4 L1049.0,64.6 L1058.6,64.8 L1067.3,64.3 L1064.0,62.2 L1068.7,59.5 L1073.3,59.4 L1081.0,57.4 L1091.6,56.9 L1092.9,55.8 L1103.4,55.4 L1106.7,56.3 L1115.7,54.2 L1123.0,54.3 L1124.1,52.6 L1128.0,50.9 L1137.4,49.2 L1144.3,50.5 L1138.8,51.5 L1147.9,52.1Z M916.4,194.9 L918.5,197.7 L920.3,197.9 L921.6,199.0 L918.3,199.3 L917.6,202.4 L916.9,203.8 L915.4,204.7 L915.5,206.7 L916.8,209.7 L920.6,210.5 L923.4,212.5 L929.1,213.2 L935.3,212.1 L935.7,211.2 L934.9,208.4 L935.5,204.2 L932.4,202.8 L933.4,200.1 L930.8,199.9 L931.7,196.5 L935.4,197.5 L938.9,196.2 L936.0,193.8 L934.9,191.5 L931.7,192.5 L931.3,195.5 L930.0,192.9 L929.8,191.9 L930.8,190.2 L930.0,188.8 L925.4,187.5 L923.6,183.9 L921.4,182.9 L921.2,181.6 L925.1,181.9 L925.3,179.0 L928.7,178.4 L932.2,179.0 L932.9,175.1 L932.2,172.6 L928.2,172.8 L924.8,171.8 L920.1,173.6 L916.4,174.4 L914.6,176.8 L910.7,177.4 L906.7,181.6 L910.4,185.4 L910.0,188.1 L914.3,192.8 L916.4,194.9Z" fill="#b9d99e"/><path d="M344.6,49.9 L342.8,50.0 L335.3,49.8 L334.3,48.7 L342.3,48.7 L345.1,49.5 L344.6,49.9Z" fill="#b9d99e"/><path d="M279.3,49.2 L271.8,50.4 L265.9,49.1 L269.1,47.8 L274.9,47.4 L280.6,48.0 L279.3,49.2Z" fill="#b9d99e"/><path d="M818.9,48.6 L810.0,50.2 L802.9,49.3 L805.7,48.3 L803.2,47.0 L811.5,46.2 L813.1,47.7 L818.9,48.6Z" fill="#b9d99e"/><path d="M281.3,45.6 L276.5,46.4 L269.8,46.4 L269.9,45.8 L274.0,44.6 L276.1,44.8 L281.3,45.6Z" fill="#b9d99e"/><path d="M336.7,47.8 L330.8,48.6 L327.5,47.7 L325.8,46.2 L325.5,44.5 L330.7,44.7 L333.0,44.9 L337.8,46.3 L336.7,47.8Z" fill="#b9d99e"/><path d="M319.8,46.7 L321.3,48.4 L314.8,47.9 L308.2,46.6 L299.3,46.5 L303.2,45.3 L298.3,44.3 L298.0,42.8 L305.9,43.3 L316.7,44.8 L319.8,46.7Z" fill="#b9d99e"/><path d="M1140.3,46.8 L1117.8,48.3 L1125.1,43.1 L1128.3,42.6 L1131.4,42.9 L1141.5,45.1 L1140.3,46.8Z" fill="#b9d99e"/><path d="M793.0,41.2 L806.2,44.2 L796.1,45.7 L793.9,48.7 L790.4,49.4 L788.5,52.8 L783.7,52.9 L775.1,50.5 L778.7,49.1 L772.7,47.9 L764.9,44.5 L761.8,41.4 L772.7,40.0 L774.9,41.4 L780.6,41.3 L782.1,39.9 L788.0,39.8 L793.0,41.2Z" fill="#b9d99e"/><path d="M821.8,38.4 L829.6,39.8 L823.7,41.9 L812.1,42.4 L800.3,41.7 L799.6,40.6 L793.8,40.6 L789.5,38.7 L801.8,37.6 L807.6,38.6 L811.7,37.4 L821.8,38.4Z" fill="#b9d99e"/><path d="M924.5,37.8 L919.2,38.3 L915.6,38.6 L915.0,39.3 L910.3,40.0 L906.0,39.0 L908.3,37.8 L899.4,37.6 L907.2,36.9 L913.3,36.9 L914.1,37.9 L916.4,37.0 L920.2,36.3 L926.1,37.2 L924.5,37.8Z" fill="#b9d99e"/><path d="M1119.8,44.5 L1111.0,45.0 L1099.9,43.8 L1093.3,42.3 L1090.2,39.4 L1084.7,38.6 L1095.1,35.9 L1103.8,35.0 L1111.5,37.0 L1120.7,40.9 L1119.8,44.5Z" fill="#b9d99e"/><path d="M371.9,41.4 L376.7,42.7 L371.2,43.8 L363.9,46.9 L356.8,47.1 L348.5,46.6 L344.2,45.0 L344.3,43.5 L347.4,42.5 L340.1,42.5 L335.7,41.2 L333.2,39.4 L335.9,37.6 L338.7,36.4 L342.8,36.1 L341.1,35.2 L350.4,35.0 L355.5,37.1 L362.2,38.0 L368.8,38.7 L371.9,41.4Z" fill="#b9d99e"/><path d="M446.0,27.6 L456.7,27.9 L465.3,28.4 L472.6,29.5 L472.4,30.6 L462.7,32.3 L453.0,33.1 L449.4,34.0 L458.1,34.0 L448.6,36.4 L442.1,37.5 L435.3,40.8 L427.0,41.5 L424.5,42.3 L412.4,42.7 L417.9,43.2 L415.1,43.9 L418.4,45.9 L414.6,47.3 L408.4,48.4 L406.5,50.0 L401.0,51.2 L401.5,52.1 L408.4,51.9 L408.4,52.9 L397.8,55.3 L387.3,54.2 L375.6,54.8 L369.6,54.3 L362.0,54.1 L361.5,52.2 L368.9,51.3 L367.0,48.4 L369.4,48.1 L380.1,49.8 L374.6,47.3 L368.2,46.5 L371.4,45.0 L378.5,44.0 L379.6,42.6 L374.0,41.1 L372.3,39.0 L383.2,39.2 L386.4,39.6 L392.6,38.1 L383.6,37.7 L369.6,37.9 L362.5,36.6 L359.2,35.0 L354.5,33.8 L353.7,32.4 L359.6,31.7 L364.3,31.5 L372.1,30.9 L378.0,29.4 L383.0,29.6 L387.3,30.7 L390.3,28.6 L395.6,27.9 L402.8,27.5 L415.0,27.3 L417.1,27.7 L428.7,27.1 L437.3,27.3 L446.0,27.6Z" fill="#b9d99e"/><path d="M611.6,25.9 L636.6,29.1 L629.2,30.6 L613.9,30.8 L592.4,31.2 L594.4,31.9 L608.6,31.5 L620.6,32.9 L628.4,31.6 L631.7,33.1 L627.3,35.4 L637.5,33.9 L656.9,32.4 L668.9,33.1 L671.2,34.8 L654.9,37.7 L652.6,38.6 L639.8,39.3 L649.1,39.5 L644.4,42.4 L641.2,45.0 L641.3,49.4 L646.1,52.1 L639.9,52.2 L633.3,53.5 L640.7,55.6 L641.6,59.0 L637.3,59.4 L642.5,62.8 L633.6,63.1 L638.3,64.7 L637.0,66.1 L631.3,66.8 L625.7,66.8 L630.7,69.5 L630.8,71.3 L622.9,69.6 L620.8,70.7 L626.2,71.7 L631.5,74.1 L633.0,77.3 L625.9,78.1 L622.8,76.6 L617.8,74.3 L619.2,77.0 L614.5,79.1 L625.1,79.3 L630.6,79.5 L619.9,83.0 L609.0,86.1 L597.3,87.5 L592.9,87.5 L588.8,89.1 L583.2,93.3 L574.6,96.1 L571.8,96.2 L566.5,97.2 L560.8,98.2 L557.3,100.6 L557.3,103.4 L555.2,106.1 L548.7,109.3 L550.3,112.4 L548.5,115.7 L546.5,119.6 L540.9,119.9 L534.9,116.6 L526.9,116.6 L523.1,114.4 L520.4,110.5 L513.5,105.5 L511.4,102.9 L510.9,99.3 L505.4,95.6 L506.8,92.7 L504.1,91.2 L508.1,86.6 L514.1,85.1 L515.7,83.4 L516.5,80.3 L511.9,81.7 L509.8,82.3 L506.2,82.9 L501.3,81.6 L501.0,78.8 L502.6,76.7 L506.3,76.7 L514.4,77.7 L507.6,75.2 L504.0,73.8 L500.0,74.4 L496.7,73.4 L501.1,69.7 L498.7,68.2 L495.5,65.4 L490.7,61.2 L485.6,59.6 L485.7,57.9 L474.9,55.6 L466.4,55.3 L455.7,55.5 L446.0,55.8 L441.3,54.5 L434.4,52.0 L444.9,50.7 L452.9,50.5 L435.8,49.5 L426.8,47.8 L427.4,46.3 L442.5,44.3 L457.2,42.4 L458.7,41.0 L447.9,39.5 L451.4,37.9 L465.2,35.1 L471.1,34.7 L469.4,32.9 L478.9,31.9 L491.2,31.2 L503.5,31.2 L507.8,32.4 L518.4,30.2 L528.0,31.7 L533.6,32.1 L541.9,33.4 L532.4,31.2 L532.9,29.5 L546.4,27.1 L560.4,27.3 L565.5,25.8 L579.6,25.4 L611.6,25.9Z" fill="#b9d99e"/></g></svg>